<?xml version="1.0" encoding="UTF-8" standalone="no"?>
<!DOCTYPE svg PUBLIC "-//W3C//DTD SVG 1.1//EN"
 "http://www.w3.org/Graphics/SVG/1.1/DTD/svg11.dtd">
<!-- Generated by graphviz version 13.1.0 (20250701.0955)
 -->
<!-- Title: G Pages: 1 -->
<svg width="1794pt" height="2562pt"
 viewBox="0.00 0.00 1794.00 2562.00" xmlns="http://www.w3.org/2000/svg" xmlns:xlink="http://www.w3.org/1999/xlink">
<g id="graph0" class="graph" transform="scale(1 1) rotate(0) translate(21.6 2540.35)">
<title>G</title>
<polygon fill="#111111" stroke="none" points="-21.6,21.6 -21.6,-2540.35 1772.6,-2540.35 1772.6,21.6 -21.6,21.6"/>
<!-- osint_app/.next/types/app/api/arms&#45;deals/route.ts -->
<g id="node1" class="node">
<title>osint_app/.next/types/app/api/arms&#45;deals/route.ts</title>
<path fill="none" stroke="#c6c5fe" d="M398.83,-23.75C398.83,-23.75 103.17,-23.75 103.17,-23.75 99.21,-23.75 95.25,-19.79 95.25,-15.83 95.25,-15.83 95.25,-7.92 95.25,-7.92 95.25,-3.96 99.21,0 103.17,0 103.17,0 398.83,0 398.83,0 402.79,0 406.75,-3.96 406.75,-7.92 406.75,-7.92 406.75,-15.83 406.75,-15.83 406.75,-19.79 402.79,-23.75 398.83,-23.75"/>
<text xml:space="preserve" text-anchor="middle" x="251" y="-6.45" font-family="Arial" font-size="14.00" fill="#c6c5fe">osint_app/.next/types/app/api/arms&#45;deals/route.ts</text>
</g>
<!-- osint_app/src/app/api/arms&#45;deals/route.ts -->
<g id="node2" class="node">
<title>osint_app/src/app/api/arms&#45;deals/route.ts</title>
<path fill="none" stroke="#cfffac" d="M920.33,-23.75C920.33,-23.75 671.92,-23.75 671.92,-23.75 667.96,-23.75 664,-19.79 664,-15.83 664,-15.83 664,-7.92 664,-7.92 664,-3.96 667.96,0 671.92,0 671.92,0 920.33,0 920.33,0 924.29,0 928.25,-3.96 928.25,-7.92 928.25,-7.92 928.25,-15.83 928.25,-15.83 928.25,-19.79 924.29,-23.75 920.33,-23.75"/>
<text xml:space="preserve" text-anchor="middle" x="796.12" y="-6.45" font-family="Arial" font-size="14.00" fill="#cfffac">osint_app/src/app/api/arms&#45;deals/route.ts</text>
</g>
<!-- osint_app/.next/types/app/api/arms&#45;deals/route.ts&#45;&gt;osint_app/src/app/api/arms&#45;deals/route.ts -->
<g id="edge1" class="edge">
<title>osint_app/.next/types/app/api/arms&#45;deals/route.ts&#45;&gt;osint_app/src/app/api/arms&#45;deals/route.ts</title>
<path fill="none" stroke="#757575" d="M406.91,-11.88C484.15,-11.88 576.94,-11.88 652.43,-11.88"/>
<polygon fill="#757575" stroke="#757575" points="652.4,-15.38 662.4,-11.88 652.4,-8.38 652.4,-15.38"/>
</g>
<!-- osint_app/.next/types/app/api/auth/login/route.ts -->
<g id="node3" class="node">
<title>osint_app/.next/types/app/api/auth/login/route.ts</title>
<path fill="none" stroke="#c6c5fe" d="M394.33,-65.75C394.33,-65.75 107.67,-65.75 107.67,-65.75 103.71,-65.75 99.75,-61.79 99.75,-57.83 99.75,-57.83 99.75,-49.92 99.75,-49.92 99.75,-45.96 103.71,-42 107.67,-42 107.67,-42 394.33,-42 394.33,-42 398.29,-42 402.25,-45.96 402.25,-49.92 402.25,-49.92 402.25,-57.83 402.25,-57.83 402.25,-61.79 398.29,-65.75 394.33,-65.75"/>
<text xml:space="preserve" text-anchor="middle" x="251" y="-48.45" font-family="Arial" font-size="14.00" fill="#c6c5fe">osint_app/.next/types/app/api/auth/login/route.ts</text>
</g>
<!-- osint_app/src/app/api/auth/login/route.ts -->
<g id="node4" class="node">
<title>osint_app/src/app/api/auth/login/route.ts</title>
<path fill="none" stroke="#cfffac" d="M915.83,-65.75C915.83,-65.75 676.42,-65.75 676.42,-65.75 672.46,-65.75 668.5,-61.79 668.5,-57.83 668.5,-57.83 668.5,-49.92 668.5,-49.92 668.5,-45.96 672.46,-42 676.42,-42 676.42,-42 915.83,-42 915.83,-42 919.79,-42 923.75,-45.96 923.75,-49.92 923.75,-49.92 923.75,-57.83 923.75,-57.83 923.75,-61.79 919.79,-65.75 915.83,-65.75"/>
<text xml:space="preserve" text-anchor="middle" x="796.12" y="-48.45" font-family="Arial" font-size="14.00" fill="#cfffac">osint_app/src/app/api/auth/login/route.ts</text>
</g>
<!-- osint_app/.next/types/app/api/auth/login/route.ts&#45;&gt;osint_app/src/app/api/auth/login/route.ts -->
<g id="edge2" class="edge">
<title>osint_app/.next/types/app/api/auth/login/route.ts&#45;&gt;osint_app/src/app/api/auth/login/route.ts</title>
<path fill="none" stroke="#757575" d="M402.57,-53.88C482.16,-53.88 579.18,-53.88 656.86,-53.88"/>
<polygon fill="#757575" stroke="#757575" points="656.66,-57.38 666.66,-53.88 656.66,-50.38 656.66,-57.38"/>
</g>
<!-- osint_app/.next/types/app/api/auth/signup/route.ts -->
<g id="node5" class="node">
<title>osint_app/.next/types/app/api/auth/signup/route.ts</title>
<path fill="none" stroke="#c6c5fe" d="M399.96,-107.75C399.96,-107.75 102.04,-107.75 102.04,-107.75 98.08,-107.75 94.12,-103.79 94.12,-99.83 94.12,-99.83 94.12,-91.92 94.12,-91.92 94.12,-87.96 98.08,-84 102.04,-84 102.04,-84 399.96,-84 399.96,-84 403.92,-84 407.88,-87.96 407.88,-91.92 407.88,-91.92 407.88,-99.83 407.88,-99.83 407.88,-103.79 403.92,-107.75 399.96,-107.75"/>
<text xml:space="preserve" text-anchor="middle" x="251" y="-90.45" font-family="Arial" font-size="14.00" fill="#c6c5fe">osint_app/.next/types/app/api/auth/signup/route.ts</text>
</g>
<!-- osint_app/src/app/api/auth/signup/route.ts -->
<g id="node6" class="node">
<title>osint_app/src/app/api/auth/signup/route.ts</title>
<path fill="none" stroke="#cfffac" d="M921.46,-107.75C921.46,-107.75 670.79,-107.75 670.79,-107.75 666.83,-107.75 662.88,-103.79 662.88,-99.83 662.88,-99.83 662.88,-91.92 662.88,-91.92 662.88,-87.96 666.83,-84 670.79,-84 670.79,-84 921.46,-84 921.46,-84 925.42,-84 929.38,-87.96 929.38,-91.92 929.38,-91.92 929.38,-99.83 929.38,-99.83 929.38,-103.79 925.42,-107.75 921.46,-107.75"/>
<text xml:space="preserve" text-anchor="middle" x="796.12" y="-90.45" font-family="Arial" font-size="14.00" fill="#cfffac">osint_app/src/app/api/auth/signup/route.ts</text>
</g>
<!-- osint_app/.next/types/app/api/auth/signup/route.ts&#45;&gt;osint_app/src/app/api/auth/signup/route.ts -->
<g id="edge3" class="edge">
<title>osint_app/.next/types/app/api/auth/signup/route.ts&#45;&gt;osint_app/src/app/api/auth/signup/route.ts</title>
<path fill="none" stroke="#757575" d="M408.37,-95.88C484.97,-95.88 576.59,-95.88 651.42,-95.88"/>
<polygon fill="#757575" stroke="#757575" points="651.3,-99.38 661.3,-95.88 651.3,-92.38 651.3,-99.38"/>
</g>
<!-- osint_app/.next/types/app/api/events/geojson/route.ts -->
<g id="node7" class="node">
<title>osint_app/.next/types/app/api/events/geojson/route.ts</title>
<path fill="none" stroke="#c6c5fe" d="M410.46,-149.75C410.46,-149.75 91.54,-149.75 91.54,-149.75 87.58,-149.75 83.62,-145.79 83.62,-141.83 83.62,-141.83 83.62,-133.92 83.62,-133.92 83.62,-129.96 87.58,-126 91.54,-126 91.54,-126 410.46,-126 410.46,-126 414.42,-126 418.38,-129.96 418.38,-133.92 418.38,-133.92 418.38,-141.83 418.38,-141.83 418.38,-145.79 414.42,-149.75 410.46,-149.75"/>
<text xml:space="preserve" text-anchor="middle" x="251" y="-132.45" font-family="Arial" font-size="14.00" fill="#c6c5fe">osint_app/.next/types/app/api/events/geojson/route.ts</text>
</g>
<!-- osint_app/src/app/api/events/geojson/route.ts -->
<g id="node8" class="node">
<title>osint_app/src/app/api/events/geojson/route.ts</title>
<path fill="none" stroke="#cfffac" d="M931.96,-149.75C931.96,-149.75 660.29,-149.75 660.29,-149.75 656.33,-149.75 652.38,-145.79 652.38,-141.83 652.38,-141.83 652.38,-133.92 652.38,-133.92 652.38,-129.96 656.33,-126 660.29,-126 660.29,-126 931.96,-126 931.96,-126 935.92,-126 939.88,-129.96 939.88,-133.92 939.88,-133.92 939.88,-141.83 939.88,-141.83 939.88,-145.79 935.92,-149.75 931.96,-149.75"/>
<text xml:space="preserve" text-anchor="middle" x="796.12" y="-132.45" font-family="Arial" font-size="14.00" fill="#cfffac">osint_app/src/app/api/events/geojson/route.ts</text>
</g>
<!-- osint_app/.next/types/app/api/events/geojson/route.ts&#45;&gt;osint_app/src/app/api/events/geojson/route.ts -->
<g id="edge4" class="edge">
<title>osint_app/.next/types/app/api/events/geojson/route.ts&#45;&gt;osint_app/src/app/api/events/geojson/route.ts</title>
<path fill="none" stroke="#757575" d="M418.65,-137.88C489.39,-137.88 571.36,-137.88 640.71,-137.88"/>
<polygon fill="#757575" stroke="#757575" points="640.66,-141.38 650.66,-137.88 640.66,-134.38 640.66,-141.38"/>
</g>
<!-- osint_app/.next/types/app/api/events/route.ts -->
<g id="node9" class="node">
<title>osint_app/.next/types/app/api/events/route.ts</title>
<path fill="none" stroke="#c6c5fe" d="M384.96,-191.75C384.96,-191.75 117.04,-191.75 117.04,-191.75 113.08,-191.75 109.12,-187.79 109.12,-183.83 109.12,-183.83 109.12,-175.92 109.12,-175.92 109.12,-171.96 113.08,-168 117.04,-168 117.04,-168 384.96,-168 384.96,-168 388.92,-168 392.88,-171.96 392.88,-175.92 392.88,-175.92 392.88,-183.83 392.88,-183.83 392.88,-187.79 388.92,-191.75 384.96,-191.75"/>
<text xml:space="preserve" text-anchor="middle" x="251" y="-174.45" font-family="Arial" font-size="14.00" fill="#c6c5fe">osint_app/.next/types/app/api/events/route.ts</text>
</g>
<!-- osint_app/src/app/api/events/route.ts -->
<g id="node10" class="node">
<title>osint_app/src/app/api/events/route.ts</title>
<path fill="none" stroke="#cfffac" d="M906.46,-191.75C906.46,-191.75 685.79,-191.75 685.79,-191.75 681.83,-191.75 677.88,-187.79 677.88,-183.83 677.88,-183.83 677.88,-175.92 677.88,-175.92 677.88,-171.96 681.83,-168 685.79,-168 685.79,-168 906.46,-168 906.46,-168 910.42,-168 914.38,-171.96 914.38,-175.92 914.38,-175.92 914.38,-183.83 914.38,-183.83 914.38,-187.79 910.42,-191.75 906.46,-191.75"/>
<text xml:space="preserve" text-anchor="middle" x="796.12" y="-174.45" font-family="Arial" font-size="14.00" fill="#cfffac">osint_app/src/app/api/events/route.ts</text>
</g>
<!-- osint_app/.next/types/app/api/events/route.ts&#45;&gt;osint_app/src/app/api/events/route.ts -->
<g id="edge5" class="edge">
<title>osint_app/.next/types/app/api/events/route.ts&#45;&gt;osint_app/src/app/api/events/route.ts</title>
<path fill="none" stroke="#757575" d="M393.28,-179.88C477.63,-179.88 583.97,-179.88 666.06,-179.88"/>
<polygon fill="#757575" stroke="#757575" points="665.96,-183.38 675.96,-179.88 665.96,-176.38 665.96,-183.38"/>
</g>
<!-- osint_app/.next/types/app/api/news/route.ts -->
<g id="node11" class="node">
<title>osint_app/.next/types/app/api/news/route.ts</title>
<path fill="none" stroke="#c6c5fe" d="M380.83,-233.75C380.83,-233.75 121.17,-233.75 121.17,-233.75 117.21,-233.75 113.25,-229.79 113.25,-225.83 113.25,-225.83 113.25,-217.92 113.25,-217.92 113.25,-213.96 117.21,-210 121.17,-210 121.17,-210 380.83,-210 380.83,-210 384.79,-210 388.75,-213.96 388.75,-217.92 388.75,-217.92 388.75,-225.83 388.75,-225.83 388.75,-229.79 384.79,-233.75 380.83,-233.75"/>
<text xml:space="preserve" text-anchor="middle" x="251" y="-216.45" font-family="Arial" font-size="14.00" fill="#c6c5fe">osint_app/.next/types/app/api/news/route.ts</text>
</g>
<!-- osint_app/src/app/api/news/route.ts -->
<g id="node12" class="node">
<title>osint_app/src/app/api/news/route.ts</title>
<path fill="none" stroke="#cfffac" d="M902.33,-233.75C902.33,-233.75 689.92,-233.75 689.92,-233.75 685.96,-233.75 682,-229.79 682,-225.83 682,-225.83 682,-217.92 682,-217.92 682,-213.96 685.96,-210 689.92,-210 689.92,-210 902.33,-210 902.33,-210 906.29,-210 910.25,-213.96 910.25,-217.92 910.25,-217.92 910.25,-225.83 910.25,-225.83 910.25,-229.79 906.29,-233.75 902.33,-233.75"/>
<text xml:space="preserve" text-anchor="middle" x="796.12" y="-216.45" font-family="Arial" font-size="14.00" fill="#cfffac">osint_app/src/app/api/news/route.ts</text>
</g>
<!-- osint_app/.next/types/app/api/news/route.ts&#45;&gt;osint_app/src/app/api/news/route.ts -->
<g id="edge6" class="edge">
<title>osint_app/.next/types/app/api/news/route.ts&#45;&gt;osint_app/src/app/api/news/route.ts</title>
<path fill="none" stroke="#757575" d="M389.05,-221.88C475.58,-221.88 586.48,-221.88 670.52,-221.88"/>
<polygon fill="#757575" stroke="#757575" points="670.42,-225.38 680.42,-221.88 670.42,-218.38 670.42,-225.38"/>
</g>
<!-- osint_app/.next/types/app/arms&#45;deals/page.ts -->
<g id="node13" class="node">
<title>osint_app/.next/types/app/arms&#45;deals/page.ts</title>
<path fill="none" stroke="#c6c5fe" d="M387.58,-275.75C387.58,-275.75 114.42,-275.75 114.42,-275.75 110.46,-275.75 106.5,-271.79 106.5,-267.83 106.5,-267.83 106.5,-259.92 106.5,-259.92 106.5,-255.96 110.46,-252 114.42,-252 114.42,-252 387.58,-252 387.58,-252 391.54,-252 395.5,-255.96 395.5,-259.92 395.5,-259.92 395.5,-267.83 395.5,-267.83 395.5,-271.79 391.54,-275.75 387.58,-275.75"/>
<text xml:space="preserve" text-anchor="middle" x="251" y="-258.45" font-family="Arial" font-size="14.00" fill="#c6c5fe">osint_app/.next/types/app/arms&#45;deals/page.ts</text>
</g>
<!-- osint_app/src/app/arms&#45;deals/page.tsx -->
<g id="node14" class="node">
<title>osint_app/src/app/arms&#45;deals/page.tsx</title>
<path fill="none" stroke="#cfffac" d="M912.46,-275.75C912.46,-275.75 679.79,-275.75 679.79,-275.75 675.83,-275.75 671.88,-271.79 671.88,-267.83 671.88,-267.83 671.88,-259.92 671.88,-259.92 671.88,-255.96 675.83,-252 679.79,-252 679.79,-252 912.46,-252 912.46,-252 916.42,-252 920.38,-255.96 920.38,-259.92 920.38,-259.92 920.38,-267.83 920.38,-267.83 920.38,-271.79 916.42,-275.75 912.46,-275.75"/>
<text xml:space="preserve" text-anchor="middle" x="796.12" y="-258.45" font-family="Arial" font-size="14.00" fill="#cfffac">osint_app/src/app/arms&#45;deals/page.tsx</text>
</g>
<!-- osint_app/.next/types/app/arms&#45;deals/page.ts&#45;&gt;osint_app/src/app/arms&#45;deals/page.tsx -->
<g id="edge7" class="edge">
<title>osint_app/.next/types/app/arms&#45;deals/page.ts&#45;&gt;osint_app/src/app/arms&#45;deals/page.tsx</title>
<path fill="none" stroke="#757575" d="M395.77,-263.88C477.71,-263.88 579.76,-263.88 660.19,-263.88"/>
<polygon fill="#757575" stroke="#757575" points="659.88,-267.38 669.88,-263.88 659.88,-260.38 659.88,-267.38"/>
</g>
<!-- osint_app/.next/types/app/feedback/page.ts -->
<g id="node15" class="node">
<title>osint_app/.next/types/app/feedback/page.ts</title>
<path fill="none" stroke="#c6c5fe" d="M381.21,-317.75C381.21,-317.75 120.79,-317.75 120.79,-317.75 116.83,-317.75 112.88,-313.79 112.88,-309.83 112.88,-309.83 112.88,-301.92 112.88,-301.92 112.88,-297.96 116.83,-294 120.79,-294 120.79,-294 381.21,-294 381.21,-294 385.17,-294 389.12,-297.96 389.12,-301.92 389.12,-301.92 389.12,-309.83 389.12,-309.83 389.12,-313.79 385.17,-317.75 381.21,-317.75"/>
<text xml:space="preserve" text-anchor="middle" x="251" y="-300.45" font-family="Arial" font-size="14.00" fill="#c6c5fe">osint_app/.next/types/app/feedback/page.ts</text>
</g>
<!-- osint_app/src/app/feedback/page.tsx -->
<g id="node16" class="node">
<title>osint_app/src/app/feedback/page.tsx</title>
<path fill="none" stroke="#cfffac" d="M906.08,-317.75C906.08,-317.75 686.17,-317.75 686.17,-317.75 682.21,-317.75 678.25,-313.79 678.25,-309.83 678.25,-309.83 678.25,-301.92 678.25,-301.92 678.25,-297.96 682.21,-294 686.17,-294 686.17,-294 906.08,-294 906.08,-294 910.04,-294 914,-297.96 914,-301.92 914,-301.92 914,-309.83 914,-309.83 914,-313.79 910.04,-317.75 906.08,-317.75"/>
<text xml:space="preserve" text-anchor="middle" x="796.12" y="-300.45" font-family="Arial" font-size="14.00" fill="#cfffac">osint_app/src/app/feedback/page.tsx</text>
</g>
<!-- osint_app/.next/types/app/feedback/page.ts&#45;&gt;osint_app/src/app/feedback/page.tsx -->
<g id="edge8" class="edge">
<title>osint_app/.next/types/app/feedback/page.ts&#45;&gt;osint_app/src/app/feedback/page.tsx</title>
<path fill="none" stroke="#757575" d="M389.4,-305.88C474.58,-305.88 583.28,-305.88 666.72,-305.88"/>
<polygon fill="#757575" stroke="#757575" points="666.55,-309.38 676.55,-305.88 666.55,-302.38 666.55,-309.38"/>
</g>
<!-- osint_app/.next/types/app/layout.ts -->
<g id="node17" class="node">
<title>osint_app/.next/types/app/layout.ts</title>
<path fill="none" stroke="#c6c5fe" d="M354.96,-359.75C354.96,-359.75 147.04,-359.75 147.04,-359.75 143.08,-359.75 139.12,-355.79 139.12,-351.83 139.12,-351.83 139.12,-343.92 139.12,-343.92 139.12,-339.96 143.08,-336 147.04,-336 147.04,-336 354.96,-336 354.96,-336 358.92,-336 362.88,-339.96 362.88,-343.92 362.88,-343.92 362.88,-351.83 362.88,-351.83 362.88,-355.79 358.92,-359.75 354.96,-359.75"/>
<text xml:space="preserve" text-anchor="middle" x="251" y="-342.45" font-family="Arial" font-size="14.00" fill="#c6c5fe">osint_app/.next/types/app/layout.ts</text>
</g>
<!-- osint_app/src/app/layout.tsx -->
<g id="node18" class="node">
<title>osint_app/src/app/layout.tsx</title>
<path fill="none" stroke="#c6c5fe" d="M879.83,-359.75C879.83,-359.75 712.42,-359.75 712.42,-359.75 708.46,-359.75 704.5,-355.79 704.5,-351.83 704.5,-351.83 704.5,-343.92 704.5,-343.92 704.5,-339.96 708.46,-336 712.42,-336 712.42,-336 879.83,-336 879.83,-336 883.79,-336 887.75,-339.96 887.75,-343.92 887.75,-343.92 887.75,-351.83 887.75,-351.83 887.75,-355.79 883.79,-359.75 879.83,-359.75"/>
<text xml:space="preserve" text-anchor="middle" x="796.12" y="-342.45" font-family="Arial" font-size="14.00" fill="#c6c5fe">osint_app/src/app/layout.tsx</text>
</g>
<!-- osint_app/.next/types/app/layout.ts&#45;&gt;osint_app/src/app/layout.tsx -->
<g id="edge9" class="edge">
<title>osint_app/.next/types/app/layout.ts&#45;&gt;osint_app/src/app/layout.tsx</title>
<path fill="none" stroke="#757575" d="M363.22,-347.88C459.99,-347.88 599.09,-347.88 693.07,-347.88"/>
<polygon fill="#757575" stroke="#757575" points="692.78,-351.38 702.78,-347.88 692.78,-344.38 692.78,-351.38"/>
</g>
<!-- osint_app/src/app/globals.css -->
<g id="node62" class="node">
<title>osint_app/src/app/globals.css</title>
<path fill="none" stroke="#cfffac" d="M1278.33,-359.75C1278.33,-359.75 1101.17,-359.75 1101.17,-359.75 1097.21,-359.75 1093.25,-355.79 1093.25,-351.83 1093.25,-351.83 1093.25,-343.92 1093.25,-343.92 1093.25,-339.96 1097.21,-336 1101.17,-336 1101.17,-336 1278.33,-336 1278.33,-336 1282.29,-336 1286.25,-339.96 1286.25,-343.92 1286.25,-343.92 1286.25,-351.83 1286.25,-351.83 1286.25,-355.79 1282.29,-359.75 1278.33,-359.75"/>
<text xml:space="preserve" text-anchor="middle" x="1189.75" y="-342.45" font-family="Arial" font-size="14.00" fill="#cfffac">osint_app/src/app/globals.css</text>
</g>
<!-- osint_app/src/app/layout.tsx&#45;&gt;osint_app/src/app/globals.css -->
<g id="edge33" class="edge">
<title>osint_app/src/app/layout.tsx&#45;&gt;osint_app/src/app/globals.css</title>
<path fill="none" stroke="#757575" d="M887.96,-347.88C945.82,-347.88 1021.04,-347.88 1081.78,-347.88"/>
<polygon fill="#757575" stroke="#757575" points="1081.43,-351.38 1091.43,-347.88 1081.43,-344.38 1081.43,-351.38"/>
</g>
<!-- osint_app/.next/types/app/live&#45;events&#45;map/page.ts -->
<g id="node19" class="node">
<title>osint_app/.next/types/app/live&#45;events&#45;map/page.ts</title>
<path fill="none" stroke="#c6c5fe" d="M401.83,-401.75C401.83,-401.75 100.17,-401.75 100.17,-401.75 96.21,-401.75 92.25,-397.79 92.25,-393.83 92.25,-393.83 92.25,-385.92 92.25,-385.92 92.25,-381.96 96.21,-378 100.17,-378 100.17,-378 401.83,-378 401.83,-378 405.79,-378 409.75,-381.96 409.75,-385.92 409.75,-385.92 409.75,-393.83 409.75,-393.83 409.75,-397.79 405.79,-401.75 401.83,-401.75"/>
<text xml:space="preserve" text-anchor="middle" x="251" y="-384.45" font-family="Arial" font-size="14.00" fill="#c6c5fe">osint_app/.next/types/app/live&#45;events&#45;map/page.ts</text>
</g>
<!-- osint_app/src/app/live&#45;events&#45;map/page.tsx -->
<g id="node20" class="node">
<title>osint_app/src/app/live&#45;events&#45;map/page.tsx</title>
<path fill="none" stroke="#cfffac" d="M926.71,-401.75C926.71,-401.75 665.54,-401.75 665.54,-401.75 661.58,-401.75 657.62,-397.79 657.62,-393.83 657.62,-393.83 657.62,-385.92 657.62,-385.92 657.62,-381.96 661.58,-378 665.54,-378 665.54,-378 926.71,-378 926.71,-378 930.67,-378 934.62,-381.96 934.62,-385.92 934.62,-385.92 934.62,-393.83 934.62,-393.83 934.62,-397.79 930.67,-401.75 926.71,-401.75"/>
<text xml:space="preserve" text-anchor="middle" x="796.12" y="-384.45" font-family="Arial" font-size="14.00" fill="#cfffac">osint_app/src/app/live&#45;events&#45;map/page.tsx</text>
</g>
<!-- osint_app/.next/types/app/live&#45;events&#45;map/page.ts&#45;&gt;osint_app/src/app/live&#45;events&#45;map/page.tsx -->
<g id="edge10" class="edge">
<title>osint_app/.next/types/app/live&#45;events&#45;map/page.ts&#45;&gt;osint_app/src/app/live&#45;events&#45;map/page.tsx</title>
<path fill="none" stroke="#757575" d="M410.19,-389.88C484.65,-389.88 572.98,-389.88 646.23,-389.88"/>
<polygon fill="#757575" stroke="#757575" points="645.88,-393.38 655.88,-389.88 645.88,-386.38 645.88,-393.38"/>
</g>
<!-- osint_app/.next/types/app/login/page.ts -->
<g id="node21" class="node">
<title>osint_app/.next/types/app/login/page.ts</title>
<path fill="none" stroke="#c6c5fe" d="M368.08,-443.75C368.08,-443.75 133.92,-443.75 133.92,-443.75 129.96,-443.75 126,-439.79 126,-435.83 126,-435.83 126,-427.92 126,-427.92 126,-423.96 129.96,-420 133.92,-420 133.92,-420 368.08,-420 368.08,-420 372.04,-420 376,-423.96 376,-427.92 376,-427.92 376,-435.83 376,-435.83 376,-439.79 372.04,-443.75 368.08,-443.75"/>
<text xml:space="preserve" text-anchor="middle" x="251" y="-426.45" font-family="Arial" font-size="14.00" fill="#c6c5fe">osint_app/.next/types/app/login/page.ts</text>
</g>
<!-- osint_app/src/app/login/page.tsx -->
<g id="node22" class="node">
<title>osint_app/src/app/login/page.tsx</title>
<path fill="none" stroke="#cfffac" d="M892.96,-443.75C892.96,-443.75 699.29,-443.75 699.29,-443.75 695.33,-443.75 691.38,-439.79 691.38,-435.83 691.38,-435.83 691.38,-427.92 691.38,-427.92 691.38,-423.96 695.33,-420 699.29,-420 699.29,-420 892.96,-420 892.96,-420 896.92,-420 900.88,-423.96 900.88,-427.92 900.88,-427.92 900.88,-435.83 900.88,-435.83 900.88,-439.79 896.92,-443.75 892.96,-443.75"/>
<text xml:space="preserve" text-anchor="middle" x="796.12" y="-426.45" font-family="Arial" font-size="14.00" fill="#cfffac">osint_app/src/app/login/page.tsx</text>
</g>
<!-- osint_app/.next/types/app/login/page.ts&#45;&gt;osint_app/src/app/login/page.tsx -->
<g id="edge11" class="edge">
<title>osint_app/.next/types/app/login/page.ts&#45;&gt;osint_app/src/app/login/page.tsx</title>
<path fill="none" stroke="#757575" d="M376.26,-431.88C467.55,-431.88 590.68,-431.88 679.8,-431.88"/>
<polygon fill="#757575" stroke="#757575" points="679.52,-435.38 689.52,-431.88 679.52,-428.38 679.52,-435.38"/>
</g>
<!-- osint_app/.next/types/app/news/page.ts -->
<g id="node23" class="node">
<title>osint_app/.next/types/app/news/page.ts</title>
<path fill="none" stroke="#c6c5fe" d="M369.58,-485.75C369.58,-485.75 132.42,-485.75 132.42,-485.75 128.46,-485.75 124.5,-481.79 124.5,-477.83 124.5,-477.83 124.5,-469.92 124.5,-469.92 124.5,-465.96 128.46,-462 132.42,-462 132.42,-462 369.58,-462 369.58,-462 373.54,-462 377.5,-465.96 377.5,-469.92 377.5,-469.92 377.5,-477.83 377.5,-477.83 377.5,-481.79 373.54,-485.75 369.58,-485.75"/>
<text xml:space="preserve" text-anchor="middle" x="251" y="-468.45" font-family="Arial" font-size="14.00" fill="#c6c5fe">osint_app/.next/types/app/news/page.ts</text>
</g>
<!-- osint_app/src/app/news/page.tsx -->
<g id="node24" class="node">
<title>osint_app/src/app/news/page.tsx</title>
<path fill="none" stroke="#cfffac" d="M894.46,-485.75C894.46,-485.75 697.79,-485.75 697.79,-485.75 693.83,-485.75 689.88,-481.79 689.88,-477.83 689.88,-477.83 689.88,-469.92 689.88,-469.92 689.88,-465.96 693.83,-462 697.79,-462 697.79,-462 894.46,-462 894.46,-462 898.42,-462 902.38,-465.96 902.38,-469.92 902.38,-469.92 902.38,-477.83 902.38,-477.83 902.38,-481.79 898.42,-485.75 894.46,-485.75"/>
<text xml:space="preserve" text-anchor="middle" x="796.12" y="-468.45" font-family="Arial" font-size="14.00" fill="#cfffac">osint_app/src/app/news/page.tsx</text>
</g>
<!-- osint_app/.next/types/app/news/page.ts&#45;&gt;osint_app/src/app/news/page.tsx -->
<g id="edge12" class="edge">
<title>osint_app/.next/types/app/news/page.ts&#45;&gt;osint_app/src/app/news/page.tsx</title>
<path fill="none" stroke="#757575" d="M377.97,-473.88C468.48,-473.88 589.63,-473.88 678.05,-473.88"/>
<polygon fill="#757575" stroke="#757575" points="677.97,-477.38 687.97,-473.88 677.97,-470.38 677.97,-477.38"/>
</g>
<!-- osint_app/.next/types/app/osint&#45;map/page.ts -->
<g id="node25" class="node">
<title>osint_app/.next/types/app/osint&#45;map/page.ts</title>
<path fill="none" stroke="#c6c5fe" d="M383.83,-527.75C383.83,-527.75 118.17,-527.75 118.17,-527.75 114.21,-527.75 110.25,-523.79 110.25,-519.83 110.25,-519.83 110.25,-511.92 110.25,-511.92 110.25,-507.96 114.21,-504 118.17,-504 118.17,-504 383.83,-504 383.83,-504 387.79,-504 391.75,-507.96 391.75,-511.92 391.75,-511.92 391.75,-519.83 391.75,-519.83 391.75,-523.79 387.79,-527.75 383.83,-527.75"/>
<text xml:space="preserve" text-anchor="middle" x="251" y="-510.45" font-family="Arial" font-size="14.00" fill="#c6c5fe">osint_app/.next/types/app/osint&#45;map/page.ts</text>
</g>
<!-- osint_app/src/app/osint&#45;map/page.tsx -->
<g id="node26" class="node">
<title>osint_app/src/app/osint&#45;map/page.tsx</title>
<path fill="none" stroke="#cfffac" d="M908.71,-527.75C908.71,-527.75 683.54,-527.75 683.54,-527.75 679.58,-527.75 675.62,-523.79 675.62,-519.83 675.62,-519.83 675.62,-511.92 675.62,-511.92 675.62,-507.96 679.58,-504 683.54,-504 683.54,-504 908.71,-504 908.71,-504 912.67,-504 916.62,-507.96 916.62,-511.92 916.62,-511.92 916.62,-519.83 916.62,-519.83 916.62,-523.79 912.67,-527.75 908.71,-527.75"/>
<text xml:space="preserve" text-anchor="middle" x="796.12" y="-510.45" font-family="Arial" font-size="14.00" fill="#cfffac">osint_app/src/app/osint&#45;map/page.tsx</text>
</g>
<!-- osint_app/.next/types/app/osint&#45;map/page.ts&#45;&gt;osint_app/src/app/osint&#45;map/page.tsx -->
<g id="edge13" class="edge">
<title>osint_app/.next/types/app/osint&#45;map/page.ts&#45;&gt;osint_app/src/app/osint&#45;map/page.tsx</title>
<path fill="none" stroke="#757575" d="M392.22,-515.88C475.97,-515.88 581.68,-515.88 663.8,-515.88"/>
<polygon fill="#757575" stroke="#757575" points="663.72,-519.38 673.72,-515.88 663.72,-512.38 663.72,-519.38"/>
</g>
<!-- osint_app/.next/types/app/page.ts -->
<g id="node27" class="node">
<title>osint_app/.next/types/app/page.ts</title>
<path fill="none" stroke="#c6c5fe" d="M351.96,-569.75C351.96,-569.75 150.04,-569.75 150.04,-569.75 146.08,-569.75 142.12,-565.79 142.12,-561.83 142.12,-561.83 142.12,-553.92 142.12,-553.92 142.12,-549.96 146.08,-546 150.04,-546 150.04,-546 351.96,-546 351.96,-546 355.92,-546 359.88,-549.96 359.88,-553.92 359.88,-553.92 359.88,-561.83 359.88,-561.83 359.88,-565.79 355.92,-569.75 351.96,-569.75"/>
<text xml:space="preserve" text-anchor="middle" x="251" y="-552.45" font-family="Arial" font-size="14.00" fill="#c6c5fe">osint_app/.next/types/app/page.ts</text>
</g>
<!-- osint_app/src/app/page.tsx -->
<g id="node28" class="node">
<title>osint_app/src/app/page.tsx</title>
<path fill="none" stroke="#cfffac" d="M876.83,-569.75C876.83,-569.75 715.42,-569.75 715.42,-569.75 711.46,-569.75 707.5,-565.79 707.5,-561.83 707.5,-561.83 707.5,-553.92 707.5,-553.92 707.5,-549.96 711.46,-546 715.42,-546 715.42,-546 876.83,-546 876.83,-546 880.79,-546 884.75,-549.96 884.75,-553.92 884.75,-553.92 884.75,-561.83 884.75,-561.83 884.75,-565.79 880.79,-569.75 876.83,-569.75"/>
<text xml:space="preserve" text-anchor="middle" x="796.12" y="-552.45" font-family="Arial" font-size="14.00" fill="#cfffac">osint_app/src/app/page.tsx</text>
</g>
<!-- osint_app/.next/types/app/page.ts&#45;&gt;osint_app/src/app/page.tsx -->
<g id="edge14" class="edge">
<title>osint_app/.next/types/app/page.ts&#45;&gt;osint_app/src/app/page.tsx</title>
<path fill="none" stroke="#757575" d="M360.28,-557.88C458.11,-557.88 600.93,-557.88 695.87,-557.88"/>
<polygon fill="#757575" stroke="#757575" points="695.69,-561.38 705.69,-557.88 695.69,-554.38 695.69,-561.38"/>
</g>
<!-- osint_app/.next/types/app/signup/page.ts -->
<g id="node29" class="node">
<title>osint_app/.next/types/app/signup/page.ts</title>
<path fill="none" stroke="#c6c5fe" d="M373.71,-611.75C373.71,-611.75 128.29,-611.75 128.29,-611.75 124.33,-611.75 120.38,-607.79 120.38,-603.83 120.38,-603.83 120.38,-595.92 120.38,-595.92 120.38,-591.96 124.33,-588 128.29,-588 128.29,-588 373.71,-588 373.71,-588 377.67,-588 381.62,-591.96 381.62,-595.92 381.62,-595.92 381.62,-603.83 381.62,-603.83 381.62,-607.79 377.67,-611.75 373.71,-611.75"/>
<text xml:space="preserve" text-anchor="middle" x="251" y="-594.45" font-family="Arial" font-size="14.00" fill="#c6c5fe">osint_app/.next/types/app/signup/page.ts</text>
</g>
<!-- osint_app/src/app/signup/page.tsx -->
<g id="node30" class="node">
<title>osint_app/src/app/signup/page.tsx</title>
<path fill="none" stroke="#cfffac" d="M898.58,-611.75C898.58,-611.75 693.67,-611.75 693.67,-611.75 689.71,-611.75 685.75,-607.79 685.75,-603.83 685.75,-603.83 685.75,-595.92 685.75,-595.92 685.75,-591.96 689.71,-588 693.67,-588 693.67,-588 898.58,-588 898.58,-588 902.54,-588 906.5,-591.96 906.5,-595.92 906.5,-595.92 906.5,-603.83 906.5,-603.83 906.5,-607.79 902.54,-611.75 898.58,-611.75"/>
<text xml:space="preserve" text-anchor="middle" x="796.12" y="-594.45" font-family="Arial" font-size="14.00" fill="#cfffac">osint_app/src/app/signup/page.tsx</text>
</g>
<!-- osint_app/.next/types/app/signup/page.ts&#45;&gt;osint_app/src/app/signup/page.tsx -->
<g id="edge15" class="edge">
<title>osint_app/.next/types/app/signup/page.ts&#45;&gt;osint_app/src/app/signup/page.tsx</title>
<path fill="none" stroke="#757575" d="M382.09,-599.88C470.69,-599.88 587.17,-599.88 673.84,-599.88"/>
<polygon fill="#757575" stroke="#757575" points="673.81,-603.38 683.81,-599.88 673.81,-596.38 673.81,-603.38"/>
</g>
<!-- osint_app/next&#45;env.d.ts -->
<g id="node31" class="node">
<title>osint_app/next&#45;env.d.ts</title>
<path fill="none" stroke="#cfffac" d="M320.46,-653.75C320.46,-653.75 181.54,-653.75 181.54,-653.75 177.58,-653.75 173.62,-649.79 173.62,-645.83 173.62,-645.83 173.62,-637.92 173.62,-637.92 173.62,-633.96 177.58,-630 181.54,-630 181.54,-630 320.46,-630 320.46,-630 324.42,-630 328.38,-633.96 328.38,-637.92 328.38,-637.92 328.38,-645.83 328.38,-645.83 328.38,-649.79 324.42,-653.75 320.46,-653.75"/>
<text xml:space="preserve" text-anchor="middle" x="251" y="-636.45" font-family="Arial" font-size="14.00" fill="#cfffac">osint_app/next&#45;env.d.ts</text>
</g>
<!-- osint_app/scripts/sync&#45;conflicts.ts -->
<g id="node32" class="node">
<title>osint_app/scripts/sync&#45;conflicts.ts</title>
<path fill="none" stroke="#c6c5fe" d="M351.21,-695.75C351.21,-695.75 150.79,-695.75 150.79,-695.75 146.83,-695.75 142.88,-691.79 142.88,-687.83 142.88,-687.83 142.88,-679.92 142.88,-679.92 142.88,-675.96 146.83,-672 150.79,-672 150.79,-672 351.21,-672 351.21,-672 355.17,-672 359.12,-675.96 359.12,-679.92 359.12,-679.92 359.12,-687.83 359.12,-687.83 359.12,-691.79 355.17,-695.75 351.21,-695.75"/>
<text xml:space="preserve" text-anchor="middle" x="251" y="-678.45" font-family="Arial" font-size="14.00" fill="#c6c5fe">osint_app/scripts/sync&#45;conflicts.ts</text>
</g>
<!-- osint_app/src/utils/resolve&#45;conflict&#45;region.ts -->
<g id="node33" class="node">
<title>osint_app/src/utils/resolve&#45;conflict&#45;region.ts</title>
<path fill="none" stroke="#cfffac" d="M925.21,-695.75C925.21,-695.75 667.04,-695.75 667.04,-695.75 663.08,-695.75 659.12,-691.79 659.12,-687.83 659.12,-687.83 659.12,-679.92 659.12,-679.92 659.12,-675.96 663.08,-672 667.04,-672 667.04,-672 925.21,-672 925.21,-672 929.17,-672 933.12,-675.96 933.12,-679.92 933.12,-679.92 933.12,-687.83 933.12,-687.83 933.12,-691.79 929.17,-695.75 925.21,-695.75"/>
<text xml:space="preserve" text-anchor="middle" x="796.12" y="-678.45" font-family="Arial" font-size="14.00" fill="#cfffac">osint_app/src/utils/resolve&#45;conflict&#45;region.ts</text>
</g>
<!-- osint_app/scripts/sync&#45;conflicts.ts&#45;&gt;osint_app/src/utils/resolve&#45;conflict&#45;region.ts -->
<g id="edge16" class="edge">
<title>osint_app/scripts/sync&#45;conflicts.ts&#45;&gt;osint_app/src/utils/resolve&#45;conflict&#45;region.ts</title>
<path fill="none" stroke="#757575" d="M359.3,-683.88C441.73,-683.88 556.5,-683.88 647.57,-683.88"/>
<polygon fill="#757575" stroke="#757575" points="647.33,-687.38 657.33,-683.88 647.33,-680.38 647.33,-687.38"/>
</g>
<!-- osint_app/src/agents/FrontendAgent/components/AdminLogin.tsx -->
<g id="node34" class="node">
<title>osint_app/src/agents/FrontendAgent/components/AdminLogin.tsx</title>
<path fill="none" stroke="#cfffac" d="M992.33,-821.75C992.33,-821.75 599.92,-821.75 599.92,-821.75 595.96,-821.75 592,-817.79 592,-813.83 592,-813.83 592,-805.92 592,-805.92 592,-801.96 595.96,-798 599.92,-798 599.92,-798 992.33,-798 992.33,-798 996.29,-798 1000.25,-801.96 1000.25,-805.92 1000.25,-805.92 1000.25,-813.83 1000.25,-813.83 1000.25,-817.79 996.29,-821.75 992.33,-821.75"/>
<text xml:space="preserve" text-anchor="middle" x="796.12" y="-804.45" font-family="Arial" font-size="14.00" fill="#cfffac">osint_app/src/agents/FrontendAgent/components/AdminLogin.tsx</text>
</g>
<!-- osint_app/src/agents/FrontendAgent/components/AdminPanel.tsx -->
<g id="node35" class="node">
<title>osint_app/src/agents/FrontendAgent/components/AdminPanel.tsx</title>
<path fill="none" stroke="#cfffac" d="M993.08,-779.75C993.08,-779.75 599.17,-779.75 599.17,-779.75 595.21,-779.75 591.25,-775.79 591.25,-771.83 591.25,-771.83 591.25,-763.92 591.25,-763.92 591.25,-759.96 595.21,-756 599.17,-756 599.17,-756 993.08,-756 993.08,-756 997.04,-756 1001,-759.96 1001,-763.92 1001,-763.92 1001,-771.83 1001,-771.83 1001,-775.79 997.04,-779.75 993.08,-779.75"/>
<text xml:space="preserve" text-anchor="middle" x="796.12" y="-762.45" font-family="Arial" font-size="14.00" fill="#cfffac">osint_app/src/agents/FrontendAgent/components/AdminPanel.tsx</text>
</g>
<!-- osint_app/src/agents/FrontendAgent/components/ArmsTable.tsx -->
<g id="node36" class="node">
<title>osint_app/src/agents/FrontendAgent/components/ArmsTable.tsx</title>
<path fill="none" stroke="#cfffac" d="M988.58,-1199.75C988.58,-1199.75 603.67,-1199.75 603.67,-1199.75 599.71,-1199.75 595.75,-1195.79 595.75,-1191.83 595.75,-1191.83 595.75,-1183.92 595.75,-1183.92 595.75,-1179.96 599.71,-1176 603.67,-1176 603.67,-1176 988.58,-1176 988.58,-1176 992.54,-1176 996.5,-1179.96 996.5,-1183.92 996.5,-1183.92 996.5,-1191.83 996.5,-1191.83 996.5,-1195.79 992.54,-1199.75 988.58,-1199.75"/>
<text xml:space="preserve" text-anchor="middle" x="796.12" y="-1182.45" font-family="Arial" font-size="14.00" fill="#cfffac">osint_app/src/agents/FrontendAgent/components/ArmsTable.tsx</text>
</g>
<!-- osint_app/src/agents/FrontendAgent/components/OSINTMap.tsx -->
<g id="node37" class="node">
<title>osint_app/src/agents/FrontendAgent/components/OSINTMap.tsx</title>
<path fill="none" stroke="#cfffac" d="M990.83,-947.75C990.83,-947.75 601.42,-947.75 601.42,-947.75 597.46,-947.75 593.5,-943.79 593.5,-939.83 593.5,-939.83 593.5,-931.92 593.5,-931.92 593.5,-927.96 597.46,-924 601.42,-924 601.42,-924 990.83,-924 990.83,-924 994.79,-924 998.75,-927.96 998.75,-931.92 998.75,-931.92 998.75,-939.83 998.75,-939.83 998.75,-943.79 994.79,-947.75 990.83,-947.75"/>
<text xml:space="preserve" text-anchor="middle" x="796.12" y="-930.45" font-family="Arial" font-size="14.00" fill="#cfffac">osint_app/src/agents/FrontendAgent/components/OSINTMap.tsx</text>
</g>
<!-- osint_app/src/agents/FrontendAgent/components/ReactQueryProvider.tsx -->
<g id="node38" class="node">
<title>osint_app/src/agents/FrontendAgent/components/ReactQueryProvider.tsx</title>
<path fill="none" stroke="#cfffac" d="M472.33,-1220.75C472.33,-1220.75 29.67,-1220.75 29.67,-1220.75 25.71,-1220.75 21.75,-1216.79 21.75,-1212.83 21.75,-1212.83 21.75,-1204.92 21.75,-1204.92 21.75,-1200.96 25.71,-1197 29.67,-1197 29.67,-1197 472.33,-1197 472.33,-1197 476.29,-1197 480.25,-1200.96 480.25,-1204.92 480.25,-1204.92 480.25,-1212.83 480.25,-1212.83 480.25,-1216.79 476.29,-1220.75 472.33,-1220.75"/>
<text xml:space="preserve" text-anchor="middle" x="251" y="-1203.45" font-family="Arial" font-size="14.00" fill="#cfffac">osint_app/src/agents/FrontendAgent/components/ReactQueryProvider.tsx</text>
</g>
<!-- osint_app/src/agents/FrontendAgent/components/admin/page.tsx -->
<g id="node39" class="node">
<title>osint_app/src/agents/FrontendAgent/components/admin/page.tsx</title>
<path fill="none" stroke="#c6c5fe" d="M446.83,-779.75C446.83,-779.75 55.17,-779.75 55.17,-779.75 51.21,-779.75 47.25,-775.79 47.25,-771.83 47.25,-771.83 47.25,-763.92 47.25,-763.92 47.25,-759.96 51.21,-756 55.17,-756 55.17,-756 446.83,-756 446.83,-756 450.79,-756 454.75,-759.96 454.75,-763.92 454.75,-763.92 454.75,-771.83 454.75,-771.83 454.75,-775.79 450.79,-779.75 446.83,-779.75"/>
<text xml:space="preserve" text-anchor="middle" x="251" y="-762.45" font-family="Arial" font-size="14.00" fill="#c6c5fe">osint_app/src/agents/FrontendAgent/components/admin/page.tsx</text>
</g>
<!-- osint_app/src/agents/FrontendAgent/components/admin/page.tsx&#45;&gt;osint_app/src/agents/FrontendAgent/components/AdminLogin.tsx -->
<g id="edge17" class="edge">
<title>osint_app/src/agents/FrontendAgent/components/admin/page.tsx&#45;&gt;osint_app/src/agents/FrontendAgent/components/AdminLogin.tsx</title>
<path fill="none" stroke="#757575" d="M412.02,-780.25C478.71,-785.41 556.26,-791.4 624.08,-796.65"/>
<polygon fill="#757575" stroke="#757575" points="623.56,-800.12 633.8,-797.4 624.1,-793.14 623.56,-800.12"/>
</g>
<!-- osint_app/src/agents/FrontendAgent/components/admin/page.tsx&#45;&gt;osint_app/src/agents/FrontendAgent/components/AdminPanel.tsx -->
<g id="edge18" class="edge">
<title>osint_app/src/agents/FrontendAgent/components/admin/page.tsx&#45;&gt;osint_app/src/agents/FrontendAgent/components/AdminPanel.tsx</title>
<path fill="none" stroke="#757575" d="M455.01,-767.88C495.72,-767.88 538.63,-767.88 579.74,-767.88"/>
<polygon fill="#757575" stroke="#757575" points="579.49,-771.38 589.49,-767.88 579.49,-764.38 579.49,-771.38"/>
</g>
<!-- osint_app/src/agents/FrontendAgent/utils/useAdminAuth.ts -->
<g id="node40" class="node">
<title>osint_app/src/agents/FrontendAgent/utils/useAdminAuth.ts</title>
<path fill="none" stroke="#cfffac" d="M972.08,-737.75C972.08,-737.75 620.17,-737.75 620.17,-737.75 616.21,-737.75 612.25,-733.79 612.25,-729.83 612.25,-729.83 612.25,-721.92 612.25,-721.92 612.25,-717.96 616.21,-714 620.17,-714 620.17,-714 972.08,-714 972.08,-714 976.04,-714 980,-717.96 980,-721.92 980,-721.92 980,-729.83 980,-729.83 980,-733.79 976.04,-737.75 972.08,-737.75"/>
<text xml:space="preserve" text-anchor="middle" x="796.12" y="-720.45" font-family="Arial" font-size="14.00" fill="#cfffac">osint_app/src/agents/FrontendAgent/utils/useAdminAuth.ts</text>
</g>
<!-- osint_app/src/agents/FrontendAgent/components/admin/page.tsx&#45;&gt;osint_app/src/agents/FrontendAgent/utils/useAdminAuth.ts -->
<g id="edge19" class="edge">
<title>osint_app/src/agents/FrontendAgent/components/admin/page.tsx&#45;&gt;osint_app/src/agents/FrontendAgent/utils/useAdminAuth.ts</title>
<path fill="none" stroke="#757575" d="M412.02,-755.5C478.71,-750.34 556.26,-744.35 624.08,-739.1"/>
<polygon fill="#757575" stroke="#757575" points="624.1,-742.61 633.8,-738.35 623.56,-735.63 624.1,-742.61"/>
</g>
<!-- osint_app/src/agents/FrontendAgent/components/analytics/page.tsx -->
<g id="node41" class="node">
<title>osint_app/src/agents/FrontendAgent/components/analytics/page.tsx</title>
<path fill="none" stroke="#c6c5fe" d="M454.33,-1115.75C454.33,-1115.75 47.67,-1115.75 47.67,-1115.75 43.71,-1115.75 39.75,-1111.79 39.75,-1107.83 39.75,-1107.83 39.75,-1099.92 39.75,-1099.92 39.75,-1095.96 43.71,-1092 47.67,-1092 47.67,-1092 454.33,-1092 454.33,-1092 458.29,-1092 462.25,-1095.96 462.25,-1099.92 462.25,-1099.92 462.25,-1107.83 462.25,-1107.83 462.25,-1111.79 458.29,-1115.75 454.33,-1115.75"/>
<text xml:space="preserve" text-anchor="middle" x="251" y="-1098.45" font-family="Arial" font-size="14.00" fill="#c6c5fe">osint_app/src/agents/FrontendAgent/components/analytics/page.tsx</text>
</g>
<!-- osint_app/src/agents/FrontendAgent/components/common/BetaProgramBanner.tsx -->
<g id="node42" class="node">
<title>osint_app/src/agents/FrontendAgent/components/common/BetaProgramBanner.tsx</title>
<path fill="none" stroke="#cfffac" d="M1046.33,-1115.75C1046.33,-1115.75 545.92,-1115.75 545.92,-1115.75 541.96,-1115.75 538,-1111.79 538,-1107.83 538,-1107.83 538,-1099.92 538,-1099.92 538,-1095.96 541.96,-1092 545.92,-1092 545.92,-1092 1046.33,-1092 1046.33,-1092 1050.29,-1092 1054.25,-1095.96 1054.25,-1099.92 1054.25,-1099.92 1054.25,-1107.83 1054.25,-1107.83 1054.25,-1111.79 1050.29,-1115.75 1046.33,-1115.75"/>
<text xml:space="preserve" text-anchor="middle" x="796.12" y="-1098.45" font-family="Arial" font-size="14.00" fill="#cfffac">osint_app/src/agents/FrontendAgent/components/common/BetaProgramBanner.tsx</text>
</g>
<!-- osint_app/src/agents/FrontendAgent/components/analytics/page.tsx&#45;&gt;osint_app/src/agents/FrontendAgent/components/common/BetaProgramBanner.tsx -->
<g id="edge20" class="edge">
<title>osint_app/src/agents/FrontendAgent/components/analytics/page.tsx&#45;&gt;osint_app/src/agents/FrontendAgent/components/common/BetaProgramBanner.tsx</title>
<path fill="none" stroke="#757575" d="M462.37,-1103.88C483.46,-1103.88 505.07,-1103.88 526.65,-1103.88"/>
<polygon fill="#757575" stroke="#757575" points="526.41,-1107.38 536.41,-1103.88 526.41,-1100.38 526.41,-1107.38"/>
</g>
<!-- osint_app/src/agents/FrontendAgent/components/common/LoadingSkeletons.tsx -->
<g id="node43" class="node">
<title>osint_app/src/agents/FrontendAgent/components/common/LoadingSkeletons.tsx</title>
<path fill="none" stroke="#cfffac" d="M1038.46,-1073.75C1038.46,-1073.75 553.79,-1073.75 553.79,-1073.75 549.83,-1073.75 545.88,-1069.79 545.88,-1065.83 545.88,-1065.83 545.88,-1057.92 545.88,-1057.92 545.88,-1053.96 549.83,-1050 553.79,-1050 553.79,-1050 1038.46,-1050 1038.46,-1050 1042.42,-1050 1046.38,-1053.96 1046.38,-1057.92 1046.38,-1057.92 1046.38,-1065.83 1046.38,-1065.83 1046.38,-1069.79 1042.42,-1073.75 1038.46,-1073.75"/>
<text xml:space="preserve" text-anchor="middle" x="796.12" y="-1056.45" font-family="Arial" font-size="14.00" fill="#cfffac">osint_app/src/agents/FrontendAgent/components/common/LoadingSkeletons.tsx</text>
</g>
<!-- osint_app/src/agents/FrontendAgent/components/analytics/page.tsx&#45;&gt;osint_app/src/agents/FrontendAgent/components/common/LoadingSkeletons.tsx -->
<g id="edge21" class="edge">
<title>osint_app/src/agents/FrontendAgent/components/analytics/page.tsx&#45;&gt;osint_app/src/agents/FrontendAgent/components/common/LoadingSkeletons.tsx</title>
<path fill="none" stroke="#757575" d="M412.02,-1091.5C478.71,-1086.34 556.26,-1080.35 624.08,-1075.1"/>
<polygon fill="#757575" stroke="#757575" points="624.1,-1078.61 633.8,-1074.35 623.56,-1071.63 624.1,-1078.61"/>
</g>
<!-- osint_app/src/agents/FrontendAgent/utils/useAnalytics.ts -->
<g id="node44" class="node">
<title>osint_app/src/agents/FrontendAgent/utils/useAnalytics.ts</title>
<path fill="none" stroke="#cfffac" d="M965.71,-1157.75C965.71,-1157.75 626.54,-1157.75 626.54,-1157.75 622.58,-1157.75 618.62,-1153.79 618.62,-1149.83 618.62,-1149.83 618.62,-1141.92 618.62,-1141.92 618.62,-1137.96 622.58,-1134 626.54,-1134 626.54,-1134 965.71,-1134 965.71,-1134 969.67,-1134 973.62,-1137.96 973.62,-1141.92 973.62,-1141.92 973.62,-1149.83 973.62,-1149.83 973.62,-1153.79 969.67,-1157.75 965.71,-1157.75"/>
<text xml:space="preserve" text-anchor="middle" x="796.12" y="-1140.45" font-family="Arial" font-size="14.00" fill="#cfffac">osint_app/src/agents/FrontendAgent/utils/useAnalytics.ts</text>
</g>
<!-- osint_app/src/agents/FrontendAgent/components/analytics/page.tsx&#45;&gt;osint_app/src/agents/FrontendAgent/utils/useAnalytics.ts -->
<g id="edge22" class="edge">
<title>osint_app/src/agents/FrontendAgent/components/analytics/page.tsx&#45;&gt;osint_app/src/agents/FrontendAgent/utils/useAnalytics.ts</title>
<path fill="none" stroke="#757575" d="M412.02,-1116.25C478.71,-1121.41 556.26,-1127.4 624.08,-1132.65"/>
<polygon fill="#757575" stroke="#757575" points="623.56,-1136.12 633.8,-1133.4 624.1,-1129.14 623.56,-1136.12"/>
</g>
<!-- osint_app/src/agents/FrontendAgent/components/arms&#45;deals/page.tsx -->
<g id="node45" class="node">
<title>osint_app/src/agents/FrontendAgent/components/arms&#45;deals/page.tsx</title>
<path fill="none" stroke="#c6c5fe" d="M461.83,-1178.75C461.83,-1178.75 40.17,-1178.75 40.17,-1178.75 36.21,-1178.75 32.25,-1174.79 32.25,-1170.83 32.25,-1170.83 32.25,-1162.92 32.25,-1162.92 32.25,-1158.96 36.21,-1155 40.17,-1155 40.17,-1155 461.83,-1155 461.83,-1155 465.79,-1155 469.75,-1158.96 469.75,-1162.92 469.75,-1162.92 469.75,-1170.83 469.75,-1170.83 469.75,-1174.79 465.79,-1178.75 461.83,-1178.75"/>
<text xml:space="preserve" text-anchor="middle" x="251" y="-1161.45" font-family="Arial" font-size="14.00" fill="#c6c5fe">osint_app/src/agents/FrontendAgent/components/arms&#45;deals/page.tsx</text>
</g>
<!-- osint_app/src/agents/FrontendAgent/components/arms&#45;deals/page.tsx&#45;&gt;osint_app/src/agents/FrontendAgent/components/ArmsTable.tsx -->
<g id="edge23" class="edge">
<title>osint_app/src/agents/FrontendAgent/components/arms&#45;deals/page.tsx&#45;&gt;osint_app/src/agents/FrontendAgent/components/ArmsTable.tsx</title>
<path fill="none" stroke="#757575" d="M470.17,-1175.31C507.89,-1176.77 547.03,-1178.28 584.54,-1179.73"/>
<polygon fill="#757575" stroke="#757575" points="583.96,-1183.21 594.09,-1180.1 584.23,-1176.22 583.96,-1183.21"/>
</g>
<!-- osint_app/src/agents/FrontendAgent/components/arms&#45;deals/page.tsx&#45;&gt;osint_app/src/agents/FrontendAgent/components/common/LoadingSkeletons.tsx -->
<g id="edge24" class="edge">
<title>osint_app/src/agents/FrontendAgent/components/arms&#45;deals/page.tsx&#45;&gt;osint_app/src/agents/FrontendAgent/components/common/LoadingSkeletons.tsx</title>
<path fill="none" stroke="#757575" d="M422.87,-1154.51C450.46,-1147.98 477.86,-1138.51 502,-1124.88 523.4,-1112.78 516.1,-1094.05 538,-1082.88 540.95,-1081.37 543.93,-1079.94 546.96,-1078.57"/>
<polygon fill="#757575" stroke="#757575" points="548.15,-1081.87 556.01,-1074.76 545.43,-1075.42 548.15,-1081.87"/>
</g>
<!-- osint_app/src/agents/FrontendAgent/components/common/ConflictCard.tsx -->
<g id="node46" class="node">
<title>osint_app/src/agents/FrontendAgent/components/common/ConflictCard.tsx</title>
<path fill="none" stroke="#cfffac" d="M476.83,-1262.75C476.83,-1262.75 25.17,-1262.75 25.17,-1262.75 21.21,-1262.75 17.25,-1258.79 17.25,-1254.83 17.25,-1254.83 17.25,-1246.92 17.25,-1246.92 17.25,-1242.96 21.21,-1239 25.17,-1239 25.17,-1239 476.83,-1239 476.83,-1239 480.79,-1239 484.75,-1242.96 484.75,-1246.92 484.75,-1246.92 484.75,-1254.83 484.75,-1254.83 484.75,-1258.79 480.79,-1262.75 476.83,-1262.75"/>
<text xml:space="preserve" text-anchor="middle" x="251" y="-1245.45" font-family="Arial" font-size="14.00" fill="#cfffac">osint_app/src/agents/FrontendAgent/components/common/ConflictCard.tsx</text>
</g>
<!-- osint_app/src/agents/FrontendAgent/components/common/FilterSidebar.tsx -->
<g id="node47" class="node">
<title>osint_app/src/agents/FrontendAgent/components/common/FilterSidebar.tsx</title>
<path fill="none" stroke="#cfffac" d="M477.58,-1304.75C477.58,-1304.75 24.42,-1304.75 24.42,-1304.75 20.46,-1304.75 16.5,-1300.79 16.5,-1296.83 16.5,-1296.83 16.5,-1288.92 16.5,-1288.92 16.5,-1284.96 20.46,-1281 24.42,-1281 24.42,-1281 477.58,-1281 477.58,-1281 481.54,-1281 485.5,-1284.96 485.5,-1288.92 485.5,-1288.92 485.5,-1296.83 485.5,-1296.83 485.5,-1300.79 481.54,-1304.75 477.58,-1304.75"/>
<text xml:space="preserve" text-anchor="middle" x="251" y="-1287.45" font-family="Arial" font-size="14.00" fill="#cfffac">osint_app/src/agents/FrontendAgent/components/common/FilterSidebar.tsx</text>
</g>
<!-- osint_app/src/agents/FrontendAgent/components/common/GlobeBackground.tsx -->
<g id="node48" class="node">
<title>osint_app/src/agents/FrontendAgent/components/common/GlobeBackground.tsx</title>
<path fill="none" stroke="#cfffac" d="M494.08,-1346.75C494.08,-1346.75 7.92,-1346.75 7.92,-1346.75 3.96,-1346.75 0,-1342.79 0,-1338.83 0,-1338.83 0,-1330.92 0,-1330.92 0,-1326.96 3.96,-1323 7.92,-1323 7.92,-1323 494.08,-1323 494.08,-1323 498.04,-1323 502,-1326.96 502,-1330.92 502,-1330.92 502,-1338.83 502,-1338.83 502,-1342.79 498.04,-1346.75 494.08,-1346.75"/>
<text xml:space="preserve" text-anchor="middle" x="251" y="-1329.45" font-family="Arial" font-size="14.00" fill="#cfffac">osint_app/src/agents/FrontendAgent/components/common/GlobeBackground.tsx</text>
</g>
<!-- osint_app/src/agents/FrontendAgent/components/common/Navigation.tsx -->
<g id="node49" class="node">
<title>osint_app/src/agents/FrontendAgent/components/common/Navigation.tsx</title>
<path fill="none" stroke="#c6c5fe" d="M471.58,-1388.75C471.58,-1388.75 30.42,-1388.75 30.42,-1388.75 26.46,-1388.75 22.5,-1384.79 22.5,-1380.83 22.5,-1380.83 22.5,-1372.92 22.5,-1372.92 22.5,-1368.96 26.46,-1365 30.42,-1365 30.42,-1365 471.58,-1365 471.58,-1365 475.54,-1365 479.5,-1368.96 479.5,-1372.92 479.5,-1372.92 479.5,-1380.83 479.5,-1380.83 479.5,-1384.79 475.54,-1388.75 471.58,-1388.75"/>
<text xml:space="preserve" text-anchor="middle" x="251" y="-1371.45" font-family="Arial" font-size="14.00" fill="#c6c5fe">osint_app/src/agents/FrontendAgent/components/common/Navigation.tsx</text>
</g>
<!-- osint_app/src/agents/FrontendAgent/utils/useBetaVisibility.ts -->
<g id="node50" class="node">
<title>osint_app/src/agents/FrontendAgent/utils/useBetaVisibility.ts</title>
<path fill="none" stroke="#cfffac" d="M976.58,-1388.75C976.58,-1388.75 615.67,-1388.75 615.67,-1388.75 611.71,-1388.75 607.75,-1384.79 607.75,-1380.83 607.75,-1380.83 607.75,-1372.92 607.75,-1372.92 607.75,-1368.96 611.71,-1365 615.67,-1365 615.67,-1365 976.58,-1365 976.58,-1365 980.54,-1365 984.5,-1368.96 984.5,-1372.92 984.5,-1372.92 984.5,-1380.83 984.5,-1380.83 984.5,-1384.79 980.54,-1388.75 976.58,-1388.75"/>
<text xml:space="preserve" text-anchor="middle" x="796.12" y="-1371.45" font-family="Arial" font-size="14.00" fill="#cfffac">osint_app/src/agents/FrontendAgent/utils/useBetaVisibility.ts</text>
</g>
<!-- osint_app/src/agents/FrontendAgent/components/common/Navigation.tsx&#45;&gt;osint_app/src/agents/FrontendAgent/utils/useBetaVisibility.ts -->
<g id="edge25" class="edge">
<title>osint_app/src/agents/FrontendAgent/components/common/Navigation.tsx&#45;&gt;osint_app/src/agents/FrontendAgent/utils/useBetaVisibility.ts</title>
<path fill="none" stroke="#757575" d="M479.97,-1376.88C518.68,-1376.88 558.6,-1376.88 596.48,-1376.88"/>
<polygon fill="#757575" stroke="#757575" points="596.12,-1380.38 606.12,-1376.88 596.12,-1373.38 596.12,-1380.38"/>
</g>
<!-- osint_app/src/agents/FrontendAgent/components/common/NewsFeed.tsx -->
<g id="node51" class="node">
<title>osint_app/src/agents/FrontendAgent/components/common/NewsFeed.tsx</title>
<path fill="none" stroke="#cfffac" d="M1017.08,-989.75C1017.08,-989.75 575.17,-989.75 575.17,-989.75 571.21,-989.75 567.25,-985.79 567.25,-981.83 567.25,-981.83 567.25,-973.92 567.25,-973.92 567.25,-969.96 571.21,-966 575.17,-966 575.17,-966 1017.08,-966 1017.08,-966 1021.04,-966 1025,-969.96 1025,-973.92 1025,-973.92 1025,-981.83 1025,-981.83 1025,-985.79 1021.04,-989.75 1017.08,-989.75"/>
<text xml:space="preserve" text-anchor="middle" x="796.12" y="-972.45" font-family="Arial" font-size="14.00" fill="#cfffac">osint_app/src/agents/FrontendAgent/components/common/NewsFeed.tsx</text>
</g>
<!-- osint_app/src/agents/FrontendAgent/components/common/OSINTEventFeed.tsx -->
<g id="node52" class="node">
<title>osint_app/src/agents/FrontendAgent/components/common/OSINTEventFeed.tsx</title>
<path fill="none" stroke="#cfffac" d="M1038.46,-905.75C1038.46,-905.75 553.79,-905.75 553.79,-905.75 549.83,-905.75 545.88,-901.79 545.88,-897.83 545.88,-897.83 545.88,-889.92 545.88,-889.92 545.88,-885.96 549.83,-882 553.79,-882 553.79,-882 1038.46,-882 1038.46,-882 1042.42,-882 1046.38,-885.96 1046.38,-889.92 1046.38,-889.92 1046.38,-897.83 1046.38,-897.83 1046.38,-901.79 1042.42,-905.75 1038.46,-905.75"/>
<text xml:space="preserve" text-anchor="middle" x="796.12" y="-888.45" font-family="Arial" font-size="14.00" fill="#cfffac">osint_app/src/agents/FrontendAgent/components/common/OSINTEventFeed.tsx</text>
</g>
<!-- osint_app/src/agents/FrontendAgent/components/common/OSINTFilters.tsx -->
<g id="node53" class="node">
<title>osint_app/src/agents/FrontendAgent/components/common/OSINTFilters.tsx</title>
<path fill="none" stroke="#cfffac" d="M1024.21,-863.75C1024.21,-863.75 568.04,-863.75 568.04,-863.75 564.08,-863.75 560.12,-859.79 560.12,-855.83 560.12,-855.83 560.12,-847.92 560.12,-847.92 560.12,-843.96 564.08,-840 568.04,-840 568.04,-840 1024.21,-840 1024.21,-840 1028.17,-840 1032.12,-843.96 1032.12,-847.92 1032.12,-847.92 1032.12,-855.83 1032.12,-855.83 1032.12,-859.79 1028.17,-863.75 1024.21,-863.75"/>
<text xml:space="preserve" text-anchor="middle" x="796.12" y="-846.45" font-family="Arial" font-size="14.00" fill="#cfffac">osint_app/src/agents/FrontendAgent/components/common/OSINTFilters.tsx</text>
</g>
<!-- osint_app/src/agents/FrontendAgent/components/common/Providers.tsx -->
<g id="node54" class="node">
<title>osint_app/src/agents/FrontendAgent/components/common/Providers.tsx</title>
<path fill="none" stroke="#cfffac" d="M468.21,-1430.75C468.21,-1430.75 33.79,-1430.75 33.79,-1430.75 29.83,-1430.75 25.87,-1426.79 25.87,-1422.83 25.87,-1422.83 25.87,-1414.92 25.87,-1414.92 25.87,-1410.96 29.83,-1407 33.79,-1407 33.79,-1407 468.21,-1407 468.21,-1407 472.17,-1407 476.12,-1410.96 476.12,-1414.92 476.12,-1414.92 476.12,-1422.83 476.12,-1422.83 476.12,-1426.79 472.17,-1430.75 468.21,-1430.75"/>
<text xml:space="preserve" text-anchor="middle" x="251" y="-1413.45" font-family="Arial" font-size="14.00" fill="#cfffac">osint_app/src/agents/FrontendAgent/components/common/Providers.tsx</text>
</g>
<!-- osint_app/src/agents/FrontendAgent/components/forms/BetaSignupForm.tsx -->
<g id="node55" class="node">
<title>osint_app/src/agents/FrontendAgent/components/forms/BetaSignupForm.tsx</title>
<path fill="none" stroke="#cfffac" d="M481.33,-1472.75C481.33,-1472.75 20.67,-1472.75 20.67,-1472.75 16.71,-1472.75 12.75,-1468.79 12.75,-1464.83 12.75,-1464.83 12.75,-1456.92 12.75,-1456.92 12.75,-1452.96 16.71,-1449 20.67,-1449 20.67,-1449 481.33,-1449 481.33,-1449 485.29,-1449 489.25,-1452.96 489.25,-1456.92 489.25,-1456.92 489.25,-1464.83 489.25,-1464.83 489.25,-1468.79 485.29,-1472.75 481.33,-1472.75"/>
<text xml:space="preserve" text-anchor="middle" x="251" y="-1455.45" font-family="Arial" font-size="14.00" fill="#cfffac">osint_app/src/agents/FrontendAgent/components/forms/BetaSignupForm.tsx</text>
</g>
<!-- osint_app/src/agents/FrontendAgent/components/forms/FeedbackForm.tsx -->
<g id="node56" class="node">
<title>osint_app/src/agents/FrontendAgent/components/forms/FeedbackForm.tsx</title>
<path fill="none" stroke="#cfffac" d="M476.08,-1514.75C476.08,-1514.75 25.92,-1514.75 25.92,-1514.75 21.96,-1514.75 18,-1510.79 18,-1506.83 18,-1506.83 18,-1498.92 18,-1498.92 18,-1494.96 21.96,-1491 25.92,-1491 25.92,-1491 476.08,-1491 476.08,-1491 480.04,-1491 484,-1494.96 484,-1498.92 484,-1498.92 484,-1506.83 484,-1506.83 484,-1510.79 480.04,-1514.75 476.08,-1514.75"/>
<text xml:space="preserve" text-anchor="middle" x="251" y="-1497.45" font-family="Arial" font-size="14.00" fill="#cfffac">osint_app/src/agents/FrontendAgent/components/forms/FeedbackForm.tsx</text>
</g>
<!-- osint_app/src/agents/FrontendAgent/components/news/page.tsx -->
<g id="node57" class="node">
<title>osint_app/src/agents/FrontendAgent/components/news/page.tsx</title>
<path fill="none" stroke="#c6c5fe" d="M443.83,-1031.75C443.83,-1031.75 58.17,-1031.75 58.17,-1031.75 54.21,-1031.75 50.25,-1027.79 50.25,-1023.83 50.25,-1023.83 50.25,-1015.92 50.25,-1015.92 50.25,-1011.96 54.21,-1008 58.17,-1008 58.17,-1008 443.83,-1008 443.83,-1008 447.79,-1008 451.75,-1011.96 451.75,-1015.92 451.75,-1015.92 451.75,-1023.83 451.75,-1023.83 451.75,-1027.79 447.79,-1031.75 443.83,-1031.75"/>
<text xml:space="preserve" text-anchor="middle" x="251" y="-1014.45" font-family="Arial" font-size="14.00" fill="#c6c5fe">osint_app/src/agents/FrontendAgent/components/news/page.tsx</text>
</g>
<!-- osint_app/src/agents/FrontendAgent/components/news/page.tsx&#45;&gt;osint_app/src/agents/FrontendAgent/components/common/LoadingSkeletons.tsx -->
<g id="edge26" class="edge">
<title>osint_app/src/agents/FrontendAgent/components/news/page.tsx&#45;&gt;osint_app/src/agents/FrontendAgent/components/common/LoadingSkeletons.tsx</title>
<path fill="none" stroke="#757575" d="M412.02,-1032.25C478.71,-1037.41 556.26,-1043.4 624.08,-1048.65"/>
<polygon fill="#757575" stroke="#757575" points="623.56,-1052.12 633.8,-1049.4 624.1,-1045.14 623.56,-1052.12"/>
</g>
<!-- osint_app/src/agents/FrontendAgent/components/news/page.tsx&#45;&gt;osint_app/src/agents/FrontendAgent/components/common/NewsFeed.tsx -->
<g id="edge27" class="edge">
<title>osint_app/src/agents/FrontendAgent/components/news/page.tsx&#45;&gt;osint_app/src/agents/FrontendAgent/components/common/NewsFeed.tsx</title>
<path fill="none" stroke="#757575" d="M412.02,-1007.5C478.71,-1002.34 556.26,-996.35 624.08,-991.1"/>
<polygon fill="#757575" stroke="#757575" points="624.1,-994.61 633.8,-990.35 623.56,-987.63 624.1,-994.61"/>
</g>
<!-- osint_app/src/agents/FrontendAgent/utils/useNews.ts -->
<g id="node58" class="node">
<title>osint_app/src/agents/FrontendAgent/utils/useNews.ts</title>
<path fill="none" stroke="#cfffac" d="M955.58,-1031.75C955.58,-1031.75 636.67,-1031.75 636.67,-1031.75 632.71,-1031.75 628.75,-1027.79 628.75,-1023.83 628.75,-1023.83 628.75,-1015.92 628.75,-1015.92 628.75,-1011.96 632.71,-1008 636.67,-1008 636.67,-1008 955.58,-1008 955.58,-1008 959.54,-1008 963.5,-1011.96 963.5,-1015.92 963.5,-1015.92 963.5,-1023.83 963.5,-1023.83 963.5,-1027.79 959.54,-1031.75 955.58,-1031.75"/>
<text xml:space="preserve" text-anchor="middle" x="796.12" y="-1014.45" font-family="Arial" font-size="14.00" fill="#cfffac">osint_app/src/agents/FrontendAgent/utils/useNews.ts</text>
</g>
<!-- osint_app/src/agents/FrontendAgent/components/news/page.tsx&#45;&gt;osint_app/src/agents/FrontendAgent/utils/useNews.ts -->
<g id="edge28" class="edge">
<title>osint_app/src/agents/FrontendAgent/components/news/page.tsx&#45;&gt;osint_app/src/agents/FrontendAgent/utils/useNews.ts</title>
<path fill="none" stroke="#757575" d="M451.93,-1019.88C506.14,-1019.88 564.46,-1019.88 617.37,-1019.88"/>
<polygon fill="#757575" stroke="#757575" points="617.06,-1023.38 627.06,-1019.88 617.06,-1016.38 617.06,-1023.38"/>
</g>
<!-- osint_app/src/agents/FrontendAgent/components/osint&#45;map/page.tsx -->
<g id="node59" class="node">
<title>osint_app/src/agents/FrontendAgent/components/osint&#45;map/page.tsx</title>
<path fill="none" stroke="#c6c5fe" d="M458.08,-926.75C458.08,-926.75 43.92,-926.75 43.92,-926.75 39.96,-926.75 36,-922.79 36,-918.83 36,-918.83 36,-910.92 36,-910.92 36,-906.96 39.96,-903 43.92,-903 43.92,-903 458.08,-903 458.08,-903 462.04,-903 466,-906.96 466,-910.92 466,-910.92 466,-918.83 466,-918.83 466,-922.79 462.04,-926.75 458.08,-926.75"/>
<text xml:space="preserve" text-anchor="middle" x="251" y="-909.45" font-family="Arial" font-size="14.00" fill="#c6c5fe">osint_app/src/agents/FrontendAgent/components/osint&#45;map/page.tsx</text>
</g>
<!-- osint_app/src/agents/FrontendAgent/components/osint&#45;map/page.tsx&#45;&gt;osint_app/src/agents/FrontendAgent/components/OSINTMap.tsx -->
<g id="edge29" class="edge">
<title>osint_app/src/agents/FrontendAgent/components/osint&#45;map/page.tsx&#45;&gt;osint_app/src/agents/FrontendAgent/components/OSINTMap.tsx</title>
<path fill="none" stroke="#757575" d="M466.27,-923.16C504.34,-924.63 543.99,-926.16 582.03,-927.64"/>
<polygon fill="#757575" stroke="#757575" points="581.6,-931.12 591.73,-928.01 581.88,-924.13 581.6,-931.12"/>
</g>
<!-- osint_app/src/agents/FrontendAgent/components/osint&#45;map/page.tsx&#45;&gt;osint_app/src/agents/FrontendAgent/components/common/LoadingSkeletons.tsx -->
<g id="edge30" class="edge">
<title>osint_app/src/agents/FrontendAgent/components/osint&#45;map/page.tsx&#45;&gt;osint_app/src/agents/FrontendAgent/components/common/LoadingSkeletons.tsx</title>
<path fill="none" stroke="#757575" d="M319.29,-927.19C372.29,-939.21 446.29,-961.32 502,-998.88 522.39,-1012.62 516.1,-1029.7 538,-1040.88 540.95,-1042.38 543.93,-1043.81 546.96,-1045.18"/>
<polygon fill="#757575" stroke="#757575" points="545.43,-1048.33 556.01,-1048.99 548.15,-1041.88 545.43,-1048.33"/>
</g>
<!-- osint_app/src/agents/FrontendAgent/components/osint&#45;map/page.tsx&#45;&gt;osint_app/src/agents/FrontendAgent/components/common/OSINTEventFeed.tsx -->
<g id="edge31" class="edge">
<title>osint_app/src/agents/FrontendAgent/components/osint&#45;map/page.tsx&#45;&gt;osint_app/src/agents/FrontendAgent/components/common/OSINTEventFeed.tsx</title>
<path fill="none" stroke="#757575" d="M466.27,-906.59C488.7,-905.72 511.69,-904.83 534.57,-903.95"/>
<polygon fill="#757575" stroke="#757575" points="534.42,-907.46 544.27,-903.57 534.15,-900.46 534.42,-907.46"/>
</g>
<!-- osint_app/src/agents/FrontendAgent/components/osint&#45;map/page.tsx&#45;&gt;osint_app/src/agents/FrontendAgent/components/common/OSINTFilters.tsx -->
<g id="edge32" class="edge">
<title>osint_app/src/agents/FrontendAgent/components/osint&#45;map/page.tsx&#45;&gt;osint_app/src/agents/FrontendAgent/components/common/OSINTFilters.tsx</title>
<path fill="none" stroke="#757575" d="M326.8,-902.55C384.4,-893.38 466.07,-881.08 538,-872.88 562.42,-870.09 588.19,-867.53 613.6,-865.23"/>
<polygon fill="#757575" stroke="#757575" points="613.7,-868.74 623.35,-864.36 613.08,-861.77 613.7,-868.74"/>
</g>
<!-- osint_app/src/agents/FrontendAgent/utils/useArmsDeals.ts -->
<g id="node60" class="node">
<title>osint_app/src/agents/FrontendAgent/utils/useArmsDeals.ts</title>
<path fill="none" stroke="#cfffac" d="M426.96,-1556.75C426.96,-1556.75 75.04,-1556.75 75.04,-1556.75 71.08,-1556.75 67.12,-1552.79 67.12,-1548.83 67.12,-1548.83 67.12,-1540.92 67.12,-1540.92 67.12,-1536.96 71.08,-1533 75.04,-1533 75.04,-1533 426.96,-1533 426.96,-1533 430.92,-1533 434.88,-1536.96 434.88,-1540.92 434.88,-1540.92 434.88,-1548.83 434.88,-1548.83 434.88,-1552.79 430.92,-1556.75 426.96,-1556.75"/>
<text xml:space="preserve" text-anchor="middle" x="251" y="-1539.45" font-family="Arial" font-size="14.00" fill="#cfffac">osint_app/src/agents/FrontendAgent/utils/useArmsDeals.ts</text>
</g>
<!-- osint_app/src/agents/FrontendAgent/utils/useEvents.ts -->
<g id="node61" class="node">
<title>osint_app/src/agents/FrontendAgent/utils/useEvents.ts</title>
<path fill="none" stroke="#cfffac" d="M414.21,-1598.75C414.21,-1598.75 87.79,-1598.75 87.79,-1598.75 83.83,-1598.75 79.88,-1594.79 79.88,-1590.83 79.88,-1590.83 79.88,-1582.92 79.88,-1582.92 79.88,-1578.96 83.83,-1575 87.79,-1575 87.79,-1575 414.21,-1575 414.21,-1575 418.17,-1575 422.12,-1578.96 422.12,-1582.92 422.12,-1582.92 422.12,-1590.83 422.12,-1590.83 422.12,-1594.79 418.17,-1598.75 414.21,-1598.75"/>
<text xml:space="preserve" text-anchor="middle" x="251" y="-1581.45" font-family="Arial" font-size="14.00" fill="#cfffac">osint_app/src/agents/FrontendAgent/utils/useEvents.ts</text>
</g>
<!-- osint_app/src/components/AuthGuard.tsx -->
<g id="node63" class="node">
<title>osint_app/src/components/AuthGuard.tsx</title>
<path fill="none" stroke="#cfffac" d="M375.58,-1640.75C375.58,-1640.75 126.42,-1640.75 126.42,-1640.75 122.46,-1640.75 118.5,-1636.79 118.5,-1632.83 118.5,-1632.83 118.5,-1624.92 118.5,-1624.92 118.5,-1620.96 122.46,-1617 126.42,-1617 126.42,-1617 375.58,-1617 375.58,-1617 379.54,-1617 383.5,-1620.96 383.5,-1624.92 383.5,-1624.92 383.5,-1632.83 383.5,-1632.83 383.5,-1636.79 379.54,-1640.75 375.58,-1640.75"/>
<text xml:space="preserve" text-anchor="middle" x="251" y="-1623.45" font-family="Arial" font-size="14.00" fill="#cfffac">osint_app/src/components/AuthGuard.tsx</text>
</g>
<!-- osint_app/src/components/InteractiveGlobe.tsx -->
<g id="node64" class="node">
<title>osint_app/src/components/InteractiveGlobe.tsx</title>
<path fill="none" stroke="#cfffac" d="M392.08,-1682.75C392.08,-1682.75 109.92,-1682.75 109.92,-1682.75 105.96,-1682.75 102,-1678.79 102,-1674.83 102,-1674.83 102,-1666.92 102,-1666.92 102,-1662.96 105.96,-1659 109.92,-1659 109.92,-1659 392.08,-1659 392.08,-1659 396.04,-1659 400,-1662.96 400,-1666.92 400,-1666.92 400,-1674.83 400,-1674.83 400,-1678.79 396.04,-1682.75 392.08,-1682.75"/>
<text xml:space="preserve" text-anchor="middle" x="251" y="-1665.45" font-family="Arial" font-size="14.00" fill="#cfffac">osint_app/src/components/InteractiveGlobe.tsx</text>
</g>
<!-- osint_app/src/components/Navigation.tsx -->
<g id="node65" class="node">
<title>osint_app/src/components/Navigation.tsx</title>
<path fill="none" stroke="#cfffac" d="M374.46,-1724.75C374.46,-1724.75 127.54,-1724.75 127.54,-1724.75 123.58,-1724.75 119.62,-1720.79 119.62,-1716.83 119.62,-1716.83 119.62,-1708.92 119.62,-1708.92 119.62,-1704.96 123.58,-1701 127.54,-1701 127.54,-1701 374.46,-1701 374.46,-1701 378.42,-1701 382.38,-1704.96 382.38,-1708.92 382.38,-1708.92 382.38,-1716.83 382.38,-1716.83 382.38,-1720.79 378.42,-1724.75 374.46,-1724.75"/>
<text xml:space="preserve" text-anchor="middle" x="251" y="-1707.45" font-family="Arial" font-size="14.00" fill="#cfffac">osint_app/src/components/Navigation.tsx</text>
</g>
<!-- osint_app/src/components/live&#45;events/EventsFilters.tsx -->
<g id="node66" class="node">
<title>osint_app/src/components/live&#45;events/EventsFilters.tsx</title>
<path fill="none" stroke="#cfffac" d="M415.71,-1766.75C415.71,-1766.75 86.29,-1766.75 86.29,-1766.75 82.33,-1766.75 78.38,-1762.79 78.38,-1758.83 78.38,-1758.83 78.38,-1750.92 78.38,-1750.92 78.38,-1746.96 82.33,-1743 86.29,-1743 86.29,-1743 415.71,-1743 415.71,-1743 419.67,-1743 423.62,-1746.96 423.62,-1750.92 423.62,-1750.92 423.62,-1758.83 423.62,-1758.83 423.62,-1762.79 419.67,-1766.75 415.71,-1766.75"/>
<text xml:space="preserve" text-anchor="middle" x="251" y="-1749.45" font-family="Arial" font-size="14.00" fill="#cfffac">osint_app/src/components/live&#45;events/EventsFilters.tsx</text>
</g>
<!-- osint_app/src/components/live&#45;events/EventsMap.tsx -->
<g id="node67" class="node">
<title>osint_app/src/components/live&#45;events/EventsMap.tsx</title>
<path fill="none" stroke="#cfffac" d="M410.83,-1808.75C410.83,-1808.75 91.17,-1808.75 91.17,-1808.75 87.21,-1808.75 83.25,-1804.79 83.25,-1800.83 83.25,-1800.83 83.25,-1792.92 83.25,-1792.92 83.25,-1788.96 87.21,-1785 91.17,-1785 91.17,-1785 410.83,-1785 410.83,-1785 414.79,-1785 418.75,-1788.96 418.75,-1792.92 418.75,-1792.92 418.75,-1800.83 418.75,-1800.83 418.75,-1804.79 414.79,-1808.75 410.83,-1808.75"/>
<text xml:space="preserve" text-anchor="middle" x="251" y="-1791.45" font-family="Arial" font-size="14.00" fill="#cfffac">osint_app/src/components/live&#45;events/EventsMap.tsx</text>
</g>
<!-- osint_app/src/components/live&#45;events/EventsSidebar.tsx -->
<g id="node68" class="node">
<title>osint_app/src/components/live&#45;events/EventsSidebar.tsx</title>
<path fill="none" stroke="#cfffac" d="M420.21,-1850.75C420.21,-1850.75 81.79,-1850.75 81.79,-1850.75 77.83,-1850.75 73.88,-1846.79 73.88,-1842.83 73.88,-1842.83 73.88,-1834.92 73.88,-1834.92 73.88,-1830.96 77.83,-1827 81.79,-1827 81.79,-1827 420.21,-1827 420.21,-1827 424.17,-1827 428.12,-1830.96 428.12,-1834.92 428.12,-1834.92 428.12,-1842.83 428.12,-1842.83 428.12,-1846.79 424.17,-1850.75 420.21,-1850.75"/>
<text xml:space="preserve" text-anchor="middle" x="251" y="-1833.45" font-family="Arial" font-size="14.00" fill="#cfffac">osint_app/src/components/live&#45;events/EventsSidebar.tsx</text>
</g>
<!-- osint_app/src/components/live&#45;events/EventsTimeline.tsx -->
<g id="node69" class="node">
<title>osint_app/src/components/live&#45;events/EventsTimeline.tsx</title>
<path fill="none" stroke="#cfffac" d="M423.21,-1892.75C423.21,-1892.75 78.79,-1892.75 78.79,-1892.75 74.83,-1892.75 70.88,-1888.79 70.88,-1884.83 70.88,-1884.83 70.88,-1876.92 70.88,-1876.92 70.88,-1872.96 74.83,-1869 78.79,-1869 78.79,-1869 423.21,-1869 423.21,-1869 427.17,-1869 431.12,-1872.96 431.12,-1876.92 431.12,-1876.92 431.12,-1884.83 431.12,-1884.83 431.12,-1888.79 427.17,-1892.75 423.21,-1892.75"/>
<text xml:space="preserve" text-anchor="middle" x="251" y="-1875.45" font-family="Arial" font-size="14.00" fill="#cfffac">osint_app/src/components/live&#45;events/EventsTimeline.tsx</text>
</g>
<!-- osint_app/src/components/live&#45;events/MapDebug.tsx -->
<g id="node70" class="node">
<title>osint_app/src/components/live&#45;events/MapDebug.tsx</title>
<path fill="none" stroke="#cfffac" d="M410.08,-1934.75C410.08,-1934.75 91.92,-1934.75 91.92,-1934.75 87.96,-1934.75 84,-1930.79 84,-1926.83 84,-1926.83 84,-1918.92 84,-1918.92 84,-1914.96 87.96,-1911 91.92,-1911 91.92,-1911 410.08,-1911 410.08,-1911 414.04,-1911 418,-1914.96 418,-1918.92 418,-1918.92 418,-1926.83 418,-1926.83 418,-1930.79 414.04,-1934.75 410.08,-1934.75"/>
<text xml:space="preserve" text-anchor="middle" x="251" y="-1917.45" font-family="Arial" font-size="14.00" fill="#cfffac">osint_app/src/components/live&#45;events/MapDebug.tsx</text>
</g>
<!-- osint_app/src/components/live&#45;events/RealTimeConflictUpdater.tsx -->
<g id="node71" class="node">
<title>osint_app/src/components/live&#45;events/RealTimeConflictUpdater.tsx</title>
<path fill="none" stroke="#cfffac" d="M452.08,-1976.75C452.08,-1976.75 49.92,-1976.75 49.92,-1976.75 45.96,-1976.75 42,-1972.79 42,-1968.83 42,-1968.83 42,-1960.92 42,-1960.92 42,-1956.96 45.96,-1953 49.92,-1953 49.92,-1953 452.08,-1953 452.08,-1953 456.04,-1953 460,-1956.96 460,-1960.92 460,-1960.92 460,-1968.83 460,-1968.83 460,-1972.79 456.04,-1976.75 452.08,-1976.75"/>
<text xml:space="preserve" text-anchor="middle" x="251" y="-1959.45" font-family="Arial" font-size="14.00" fill="#cfffac">osint_app/src/components/live&#45;events/RealTimeConflictUpdater.tsx</text>
</g>
<!-- osint_app/src/contexts/AuthContext.tsx -->
<g id="node72" class="node">
<title>osint_app/src/contexts/AuthContext.tsx</title>
<path fill="none" stroke="#cfffac" d="M367.71,-2018.75C367.71,-2018.75 134.29,-2018.75 134.29,-2018.75 130.33,-2018.75 126.38,-2014.79 126.38,-2010.83 126.38,-2010.83 126.38,-2002.92 126.38,-2002.92 126.38,-1998.96 130.33,-1995 134.29,-1995 134.29,-1995 367.71,-1995 367.71,-1995 371.67,-1995 375.62,-1998.96 375.62,-2002.92 375.62,-2002.92 375.62,-2010.83 375.62,-2010.83 375.62,-2014.79 371.67,-2018.75 367.71,-2018.75"/>
<text xml:space="preserve" text-anchor="middle" x="251" y="-2001.45" font-family="Arial" font-size="14.00" fill="#cfffac">osint_app/src/contexts/AuthContext.tsx</text>
</g>
<!-- osint_app/src/hooks/useEvents.ts -->
<g id="node73" class="node">
<title>osint_app/src/hooks/useEvents.ts</title>
<path fill="none" stroke="#cfffac" d="M351.58,-2060.75C351.58,-2060.75 150.42,-2060.75 150.42,-2060.75 146.46,-2060.75 142.5,-2056.79 142.5,-2052.83 142.5,-2052.83 142.5,-2044.92 142.5,-2044.92 142.5,-2040.96 146.46,-2037 150.42,-2037 150.42,-2037 351.58,-2037 351.58,-2037 355.54,-2037 359.5,-2040.96 359.5,-2044.92 359.5,-2044.92 359.5,-2052.83 359.5,-2052.83 359.5,-2056.79 355.54,-2060.75 351.58,-2060.75"/>
<text xml:space="preserve" text-anchor="middle" x="251" y="-2043.45" font-family="Arial" font-size="14.00" fill="#cfffac">osint_app/src/hooks/useEvents.ts</text>
</g>
<!-- osint_app/src/hooks/useRealTimeConflictEvents.ts -->
<g id="node74" class="node">
<title>osint_app/src/hooks/useRealTimeConflictEvents.ts</title>
<path fill="none" stroke="#cfffac" d="M403.33,-2102.75C403.33,-2102.75 98.67,-2102.75 98.67,-2102.75 94.71,-2102.75 90.75,-2098.79 90.75,-2094.83 90.75,-2094.83 90.75,-2086.92 90.75,-2086.92 90.75,-2082.96 94.71,-2079 98.67,-2079 98.67,-2079 403.33,-2079 403.33,-2079 407.29,-2079 411.25,-2082.96 411.25,-2086.92 411.25,-2086.92 411.25,-2094.83 411.25,-2094.83 411.25,-2098.79 407.29,-2102.75 403.33,-2102.75"/>
<text xml:space="preserve" text-anchor="middle" x="251" y="-2085.45" font-family="Arial" font-size="14.00" fill="#cfffac">osint_app/src/hooks/useRealTimeConflictEvents.ts</text>
</g>
<!-- osint_app/src/lib/api/auth.ts -->
<g id="node75" class="node">
<title>osint_app/src/lib/api/auth.ts</title>
<path fill="none" stroke="#c6c5fe" d="M332.83,-2144.75C332.83,-2144.75 169.17,-2144.75 169.17,-2144.75 165.21,-2144.75 161.25,-2140.79 161.25,-2136.83 161.25,-2136.83 161.25,-2128.92 161.25,-2128.92 161.25,-2124.96 165.21,-2121 169.17,-2121 169.17,-2121 332.83,-2121 332.83,-2121 336.79,-2121 340.75,-2124.96 340.75,-2128.92 340.75,-2128.92 340.75,-2136.83 340.75,-2136.83 340.75,-2140.79 336.79,-2144.75 332.83,-2144.75"/>
<text xml:space="preserve" text-anchor="middle" x="251" y="-2127.45" font-family="Arial" font-size="14.00" fill="#c6c5fe">osint_app/src/lib/api/auth.ts</text>
</g>
<!-- osint_app/src/lib/api/errors.ts -->
<g id="node76" class="node">
<title>osint_app/src/lib/api/errors.ts</title>
<path fill="none" stroke="#cfffac" d="M1276.08,-2153.75C1276.08,-2153.75 1103.42,-2153.75 1103.42,-2153.75 1099.46,-2153.75 1095.5,-2149.79 1095.5,-2145.83 1095.5,-2145.83 1095.5,-2137.92 1095.5,-2137.92 1095.5,-2133.96 1099.46,-2130 1103.42,-2130 1103.42,-2130 1276.08,-2130 1276.08,-2130 1280.04,-2130 1284,-2133.96 1284,-2137.92 1284,-2137.92 1284,-2145.83 1284,-2145.83 1284,-2149.79 1280.04,-2153.75 1276.08,-2153.75"/>
<text xml:space="preserve" text-anchor="middle" x="1189.75" y="-2136.45" font-family="Arial" font-size="14.00" fill="#cfffac">osint_app/src/lib/api/errors.ts</text>
</g>
<!-- osint_app/src/lib/api/auth.ts&#45;&gt;osint_app/src/lib/api/errors.ts -->
<g id="edge34" class="edge">
<title>osint_app/src/lib/api/auth.ts&#45;&gt;osint_app/src/lib/api/errors.ts</title>
<path fill="none" stroke="#757575" d="M340.97,-2133.73C514.65,-2135.4 898.03,-2139.08 1083.78,-2140.87"/>
<polygon fill="#757575" stroke="#757575" points="1083.64,-2144.37 1093.67,-2140.96 1083.71,-2137.37 1083.64,-2144.37"/>
</g>
<!-- osint_app/src/lib/api/middleware.ts -->
<g id="node77" class="node">
<title>osint_app/src/lib/api/middleware.ts</title>
<path fill="none" stroke="#c6c5fe" d="M899.71,-2124.75C899.71,-2124.75 692.54,-2124.75 692.54,-2124.75 688.58,-2124.75 684.62,-2120.79 684.62,-2116.83 684.62,-2116.83 684.62,-2108.92 684.62,-2108.92 684.62,-2104.96 688.58,-2101 692.54,-2101 692.54,-2101 899.71,-2101 899.71,-2101 903.67,-2101 907.62,-2104.96 907.62,-2108.92 907.62,-2108.92 907.62,-2116.83 907.62,-2116.83 907.62,-2120.79 903.67,-2124.75 899.71,-2124.75"/>
<text xml:space="preserve" text-anchor="middle" x="796.12" y="-2107.45" font-family="Arial" font-size="14.00" fill="#c6c5fe">osint_app/src/lib/api/middleware.ts</text>
</g>
<!-- osint_app/src/lib/api/auth.ts&#45;&gt;osint_app/src/lib/api/middleware.ts -->
<g id="edge35" class="edge">
<title>osint_app/src/lib/api/auth.ts&#45;&gt;osint_app/src/lib/api/middleware.ts</title>
<path fill="none" stroke="#757575" d="M341.08,-2129.59C431.49,-2126.27 572.12,-2121.09 672.92,-2117.38"/>
<polygon fill="#757575" stroke="#757575" points="673.01,-2120.87 682.87,-2117.01 672.75,-2113.88 673.01,-2120.87"/>
</g>
<!-- osint_app/src/lib/api/middleware.ts&#45;&gt;osint_app/src/lib/api/errors.ts -->
<g id="edge36" class="edge">
<title>osint_app/src/lib/api/middleware.ts&#45;&gt;osint_app/src/lib/api/errors.ts</title>
<path fill="none" stroke="#757575" d="M908.04,-2121.09C963.15,-2125.17 1029.38,-2130.07 1083.67,-2134.09"/>
<polygon fill="#757575" stroke="#757575" points="1083.32,-2137.58 1093.56,-2134.83 1083.84,-2130.6 1083.32,-2137.58"/>
</g>
<!-- osint_app/src/lib/api/schemas.ts -->
<g id="node78" class="node">
<title>osint_app/src/lib/api/schemas.ts</title>
<path fill="none" stroke="#cfffac" d="M347.08,-2214.75C347.08,-2214.75 154.92,-2214.75 154.92,-2214.75 150.96,-2214.75 147,-2210.79 147,-2206.83 147,-2206.83 147,-2198.92 147,-2198.92 147,-2194.96 150.96,-2191 154.92,-2191 154.92,-2191 347.08,-2191 347.08,-2191 351.04,-2191 355,-2194.96 355,-2198.92 355,-2198.92 355,-2206.83 355,-2206.83 355,-2210.79 351.04,-2214.75 347.08,-2214.75"/>
<text xml:space="preserve" text-anchor="middle" x="251" y="-2197.45" font-family="Arial" font-size="14.00" fill="#cfffac">osint_app/src/lib/api/schemas.ts</text>
</g>
<!-- osint_app/src/lib/arms&#45;intelligence.ts -->
<g id="node79" class="node">
<title>osint_app/src/lib/arms&#45;intelligence.ts</title>
<path fill="none" stroke="#cfffac" d="M360.21,-2291.75C360.21,-2291.75 141.79,-2291.75 141.79,-2291.75 137.83,-2291.75 133.88,-2287.79 133.88,-2283.83 133.88,-2283.83 133.88,-2275.92 133.88,-2275.92 133.88,-2271.96 137.83,-2268 141.79,-2268 141.79,-2268 360.21,-2268 360.21,-2268 364.17,-2268 368.12,-2271.96 368.12,-2275.92 368.12,-2275.92 368.12,-2283.83 368.12,-2283.83 368.12,-2287.79 364.17,-2291.75 360.21,-2291.75"/>
<text xml:space="preserve" text-anchor="middle" x="251" y="-2274.45" font-family="Arial" font-size="14.00" fill="#cfffac">osint_app/src/lib/arms&#45;intelligence.ts</text>
</g>
<!-- osint_app/src/lib/classifiers.ts -->
<g id="node80" class="node">
<title>osint_app/src/lib/classifiers.ts</title>
<path fill="none" stroke="#c6c5fe" d="M1508.08,-2370.75C1508.08,-2370.75 1333.17,-2370.75 1333.17,-2370.75 1329.21,-2370.75 1325.25,-2366.79 1325.25,-2362.83 1325.25,-2362.83 1325.25,-2354.92 1325.25,-2354.92 1325.25,-2350.96 1329.21,-2347 1333.17,-2347 1333.17,-2347 1508.08,-2347 1508.08,-2347 1512.04,-2347 1516,-2350.96 1516,-2354.92 1516,-2354.92 1516,-2362.83 1516,-2362.83 1516,-2366.79 1512.04,-2370.75 1508.08,-2370.75"/>
<text xml:space="preserve" text-anchor="middle" x="1420.62" y="-2353.45" font-family="Arial" font-size="14.00" fill="#c6c5fe">osint_app/src/lib/classifiers.ts</text>
</g>
<!-- osint_app/src/lib/intelligence.ts -->
<g id="node81" class="node">
<title>osint_app/src/lib/intelligence.ts</title>
<path fill="none" stroke="#cfffac" d="M1743.08,-2269.75C1743.08,-2269.75 1559.92,-2269.75 1559.92,-2269.75 1555.96,-2269.75 1552,-2265.79 1552,-2261.83 1552,-2261.83 1552,-2253.92 1552,-2253.92 1552,-2249.96 1555.96,-2246 1559.92,-2246 1559.92,-2246 1743.08,-2246 1743.08,-2246 1747.04,-2246 1751,-2249.96 1751,-2253.92 1751,-2253.92 1751,-2261.83 1751,-2261.83 1751,-2265.79 1747.04,-2269.75 1743.08,-2269.75"/>
<text xml:space="preserve" text-anchor="middle" x="1651.5" y="-2252.45" font-family="Arial" font-size="14.00" fill="#cfffac">osint_app/src/lib/intelligence.ts</text>
</g>
<!-- osint_app/src/lib/classifiers.ts&#45;&gt;osint_app/src/lib/intelligence.ts -->
<g id="edge37" class="edge">
<title>osint_app/src/lib/classifiers.ts&#45;&gt;osint_app/src/lib/intelligence.ts</title>
<path fill="none" stroke="#757575" d="M1489.44,-2346.53C1498.51,-2344.09 1507.58,-2341.22 1516,-2337.88 1556.31,-2321.88 1598.64,-2294.73 1624.8,-2276.56"/>
<polygon fill="#757575" stroke="#757575" points="1626.6,-2279.57 1632.76,-2270.94 1622.57,-2273.85 1626.6,-2279.57"/>
</g>
<!-- osint_app/src/lib/prompts.ts -->
<g id="node82" class="node">
<title>osint_app/src/lib/prompts.ts</title>
<path fill="none" stroke="#cfffac" d="M1734.08,-2390.75C1734.08,-2390.75 1568.92,-2390.75 1568.92,-2390.75 1564.96,-2390.75 1561,-2386.79 1561,-2382.83 1561,-2382.83 1561,-2374.92 1561,-2374.92 1561,-2370.96 1564.96,-2367 1568.92,-2367 1568.92,-2367 1734.08,-2367 1734.08,-2367 1738.04,-2367 1742,-2370.96 1742,-2374.92 1742,-2374.92 1742,-2382.83 1742,-2382.83 1742,-2386.79 1738.04,-2390.75 1734.08,-2390.75"/>
<text xml:space="preserve" text-anchor="middle" x="1651.5" y="-2373.45" font-family="Arial" font-size="14.00" fill="#cfffac">osint_app/src/lib/prompts.ts</text>
</g>
<!-- osint_app/src/lib/classifiers.ts&#45;&gt;osint_app/src/lib/prompts.ts -->
<g id="edge38" class="edge">
<title>osint_app/src/lib/classifiers.ts&#45;&gt;osint_app/src/lib/prompts.ts</title>
<path fill="none" stroke="#757575" d="M1516.37,-2367.15C1527.23,-2368.1 1538.34,-2369.07 1549.28,-2370.03"/>
<polygon fill="#757575" stroke="#757575" points="1548.83,-2373.5 1559.1,-2370.89 1549.44,-2366.53 1548.83,-2373.5"/>
</g>
<!-- osint_app/src/lib/enrichment.ts -->
<g id="node83" class="node">
<title>osint_app/src/lib/enrichment.ts</title>
<path fill="none" stroke="#c6c5fe" d="M1281.33,-2329.75C1281.33,-2329.75 1098.17,-2329.75 1098.17,-2329.75 1094.21,-2329.75 1090.25,-2325.79 1090.25,-2321.83 1090.25,-2321.83 1090.25,-2313.92 1090.25,-2313.92 1090.25,-2309.96 1094.21,-2306 1098.17,-2306 1098.17,-2306 1281.33,-2306 1281.33,-2306 1285.29,-2306 1289.25,-2309.96 1289.25,-2313.92 1289.25,-2313.92 1289.25,-2321.83 1289.25,-2321.83 1289.25,-2325.79 1285.29,-2329.75 1281.33,-2329.75"/>
<text xml:space="preserve" text-anchor="middle" x="1189.75" y="-2312.45" font-family="Arial" font-size="14.00" fill="#c6c5fe">osint_app/src/lib/enrichment.ts</text>
</g>
<!-- osint_app/src/lib/enrichment.ts&#45;&gt;osint_app/src/lib/classifiers.ts -->
<g id="edge39" class="edge">
<title>osint_app/src/lib/enrichment.ts&#45;&gt;osint_app/src/lib/classifiers.ts</title>
<path fill="none" stroke="#757575" d="M1259.73,-2330.23C1284.95,-2334.75 1313.69,-2339.9 1339.78,-2344.57"/>
<polygon fill="#757575" stroke="#757575" points="1338.84,-2347.96 1349.3,-2346.28 1340.07,-2341.07 1338.84,-2347.96"/>
</g>
<!-- osint_app/src/lib/enrichment.ts&#45;&gt;osint_app/src/lib/intelligence.ts -->
<g id="edge40" class="edge">
<title>osint_app/src/lib/enrichment.ts&#45;&gt;osint_app/src/lib/intelligence.ts</title>
<path fill="none" stroke="#757575" d="M1262.55,-2305.51C1282.8,-2302.19 1304.86,-2298.73 1325.25,-2295.88 1396.82,-2285.85 1477.51,-2276.41 1540.61,-2269.45"/>
<polygon fill="#757575" stroke="#757575" points="1540.72,-2272.96 1550.28,-2268.38 1539.96,-2266 1540.72,-2272.96"/>
</g>
<!-- osint_app/src/lib/supabase.ts -->
<g id="node84" class="node">
<title>osint_app/src/lib/supabase.ts</title>
<path fill="none" stroke="#cfffac" d="M1507.71,-2328.75C1507.71,-2328.75 1333.54,-2328.75 1333.54,-2328.75 1329.58,-2328.75 1325.62,-2324.79 1325.62,-2320.83 1325.62,-2320.83 1325.62,-2312.92 1325.62,-2312.92 1325.62,-2308.96 1329.58,-2305 1333.54,-2305 1333.54,-2305 1507.71,-2305 1507.71,-2305 1511.67,-2305 1515.62,-2308.96 1515.62,-2312.92 1515.62,-2312.92 1515.62,-2320.83 1515.62,-2320.83 1515.62,-2324.79 1511.67,-2328.75 1507.71,-2328.75"/>
<text xml:space="preserve" text-anchor="middle" x="1420.62" y="-2311.45" font-family="Arial" font-size="14.00" fill="#cfffac">osint_app/src/lib/supabase.ts</text>
</g>
<!-- osint_app/src/lib/enrichment.ts&#45;&gt;osint_app/src/lib/supabase.ts -->
<g id="edge41" class="edge">
<title>osint_app/src/lib/enrichment.ts&#45;&gt;osint_app/src/lib/supabase.ts</title>
<path fill="none" stroke="#757575" d="M1289.47,-2317.44C1297.53,-2317.41 1305.7,-2317.37 1313.8,-2317.34"/>
<polygon fill="#757575" stroke="#757575" points="1313.71,-2320.84 1323.7,-2317.29 1313.68,-2313.84 1313.71,-2320.84"/>
</g>
<!-- osint_app/src/lib/intelligence&#45;integration.ts -->
<g id="node85" class="node">
<title>osint_app/src/lib/intelligence&#45;integration.ts</title>
<path fill="none" stroke="#c6c5fe" d="M921.46,-2350.75C921.46,-2350.75 670.79,-2350.75 670.79,-2350.75 666.83,-2350.75 662.88,-2346.79 662.88,-2342.83 662.88,-2342.83 662.88,-2334.92 662.88,-2334.92 662.88,-2330.96 666.83,-2327 670.79,-2327 670.79,-2327 921.46,-2327 921.46,-2327 925.42,-2327 929.38,-2330.96 929.38,-2334.92 929.38,-2334.92 929.38,-2342.83 929.38,-2342.83 929.38,-2346.79 925.42,-2350.75 921.46,-2350.75"/>
<text xml:space="preserve" text-anchor="middle" x="796.12" y="-2333.45" font-family="Arial" font-size="14.00" fill="#c6c5fe">osint_app/src/lib/intelligence&#45;integration.ts</text>
</g>
<!-- osint_app/src/lib/intelligence&#45;integration.ts&#45;&gt;osint_app/src/lib/classifiers.ts -->
<g id="edge42" class="edge">
<title>osint_app/src/lib/intelligence&#45;integration.ts&#45;&gt;osint_app/src/lib/classifiers.ts</title>
<path fill="none" stroke="#757575" d="M929.52,-2343.13C1044.05,-2346.81 1207.47,-2352.06 1313.55,-2355.47"/>
<polygon fill="#757575" stroke="#757575" points="1313.29,-2358.96 1323.4,-2355.78 1313.52,-2351.96 1313.29,-2358.96"/>
</g>
<!-- osint_app/src/lib/intelligence&#45;integration.ts&#45;&gt;osint_app/src/lib/intelligence.ts -->
<g id="edge44" class="edge">
<title>osint_app/src/lib/intelligence&#45;integration.ts&#45;&gt;osint_app/src/lib/intelligence.ts</title>
<path fill="none" stroke="#757575" d="M879.5,-2326.54C938.2,-2317.88 1019.02,-2306.22 1090.25,-2296.88 1194.54,-2283.19 1220.37,-2276.88 1325.25,-2268.88 1396.86,-2263.41 1477.55,-2260.66 1540.65,-2259.27"/>
<polygon fill="#757575" stroke="#757575" points="1540.38,-2262.78 1550.3,-2259.07 1540.23,-2255.78 1540.38,-2262.78"/>
</g>
<!-- osint_app/src/lib/intelligence&#45;integration.ts&#45;&gt;osint_app/src/lib/prompts.ts -->
<g id="edge45" class="edge">
<title>osint_app/src/lib/intelligence&#45;integration.ts&#45;&gt;osint_app/src/lib/prompts.ts</title>
<path fill="none" stroke="#757575" d="M921.5,-2351.23C973.6,-2356.17 1034.83,-2361.67 1090.25,-2365.88 1194.58,-2373.79 1220.67,-2376.76 1325.25,-2379.88 1409.99,-2382.4 1431.22,-2380.19 1516,-2379.88 1526.86,-2379.83 1538.21,-2379.78 1549.52,-2379.71"/>
<polygon fill="#757575" stroke="#757575" points="1549.3,-2383.21 1559.28,-2379.64 1549.25,-2376.21 1549.3,-2383.21"/>
</g>
<!-- osint_app/src/lib/intelligence&#45;integration.ts&#45;&gt;osint_app/src/lib/enrichment.ts -->
<g id="edge43" class="edge">
<title>osint_app/src/lib/intelligence&#45;integration.ts&#45;&gt;osint_app/src/lib/enrichment.ts</title>
<path fill="none" stroke="#757575" d="M929.71,-2331.77C978.19,-2329.17 1032.47,-2326.26 1078.76,-2323.77"/>
<polygon fill="#757575" stroke="#757575" points="1078.74,-2327.28 1088.53,-2323.25 1078.36,-2320.29 1078.74,-2327.28"/>
</g>
<!-- osint_app/src/lib/intelligence&#45;testing.ts -->
<g id="node86" class="node">
<title>osint_app/src/lib/intelligence&#45;testing.ts</title>
<path fill="none" stroke="#c6c5fe" d="M364.71,-2350.75C364.71,-2350.75 137.29,-2350.75 137.29,-2350.75 133.33,-2350.75 129.38,-2346.79 129.38,-2342.83 129.38,-2342.83 129.38,-2334.92 129.38,-2334.92 129.38,-2330.96 133.33,-2327 137.29,-2327 137.29,-2327 364.71,-2327 364.71,-2327 368.67,-2327 372.62,-2330.96 372.62,-2334.92 372.62,-2334.92 372.62,-2342.83 372.62,-2342.83 372.62,-2346.79 368.67,-2350.75 364.71,-2350.75"/>
<text xml:space="preserve" text-anchor="middle" x="251" y="-2333.45" font-family="Arial" font-size="14.00" fill="#c6c5fe">osint_app/src/lib/intelligence&#45;testing.ts</text>
</g>
<!-- osint_app/src/lib/intelligence&#45;testing.ts&#45;&gt;osint_app/src/lib/classifiers.ts -->
<g id="edge46" class="edge">
<title>osint_app/src/lib/intelligence&#45;testing.ts&#45;&gt;osint_app/src/lib/classifiers.ts</title>
<path fill="none" stroke="#757575" d="M372.97,-2349.44C423.88,-2353.45 483.78,-2357.59 538,-2359.88 871.6,-2373.92 955.47,-2374.83 1289.25,-2365.88 1297.19,-2365.66 1305.41,-2365.38 1313.67,-2365.04"/>
<polygon fill="#757575" stroke="#757575" points="1313.59,-2368.55 1323.43,-2364.62 1313.29,-2361.55 1313.59,-2368.55"/>
</g>
<!-- osint_app/src/lib/intelligence&#45;testing.ts&#45;&gt;osint_app/src/lib/intelligence.ts -->
<g id="edge48" class="edge">
<title>osint_app/src/lib/intelligence&#45;testing.ts&#45;&gt;osint_app/src/lib/intelligence.ts</title>
<path fill="none" stroke="#757575" d="M362.66,-2326.52C557.09,-2305.67 972.85,-2264.87 1325.25,-2255.88 1396.87,-2254.05 1477.4,-2254.52 1540.41,-2255.47"/>
<polygon fill="#757575" stroke="#757575" points="1539.99,-2258.96 1550.05,-2255.62 1540.1,-2251.96 1539.99,-2258.96"/>
</g>
<!-- osint_app/src/lib/intelligence&#45;testing.ts&#45;&gt;osint_app/src/lib/intelligence&#45;integration.ts -->
<g id="edge47" class="edge">
<title>osint_app/src/lib/intelligence&#45;testing.ts&#45;&gt;osint_app/src/lib/intelligence&#45;integration.ts</title>
<path fill="none" stroke="#757575" d="M372.87,-2338.88C455.22,-2338.88 564.62,-2338.88 651.43,-2338.88"/>
<polygon fill="#757575" stroke="#757575" points="651.2,-2342.38 661.2,-2338.88 651.2,-2335.38 651.2,-2342.38"/>
</g>
<!-- osint_app/src/lib/query&#45;client.ts -->
<g id="node87" class="node">
<title>osint_app/src/lib/query&#45;client.ts</title>
<path fill="none" stroke="#cfffac" d="M343.71,-2392.75C343.71,-2392.75 158.29,-2392.75 158.29,-2392.75 154.33,-2392.75 150.38,-2388.79 150.38,-2384.83 150.38,-2384.83 150.38,-2376.92 150.38,-2376.92 150.38,-2372.96 154.33,-2369 158.29,-2369 158.29,-2369 343.71,-2369 343.71,-2369 347.67,-2369 351.62,-2372.96 351.62,-2376.92 351.62,-2376.92 351.62,-2384.83 351.62,-2384.83 351.62,-2388.79 347.67,-2392.75 343.71,-2392.75"/>
<text xml:space="preserve" text-anchor="middle" x="251" y="-2375.45" font-family="Arial" font-size="14.00" fill="#cfffac">osint_app/src/lib/query&#45;client.ts</text>
</g>
<!-- osint_app/src/lib/supabase&#45;admin.ts -->
<g id="node88" class="node">
<title>osint_app/src/lib/supabase&#45;admin.ts</title>
<path fill="none" stroke="#cfffac" d="M359.08,-2434.75C359.08,-2434.75 142.92,-2434.75 142.92,-2434.75 138.96,-2434.75 135,-2430.79 135,-2426.83 135,-2426.83 135,-2418.92 135,-2418.92 135,-2414.96 138.96,-2411 142.92,-2411 142.92,-2411 359.08,-2411 359.08,-2411 363.04,-2411 367,-2414.96 367,-2418.92 367,-2418.92 367,-2426.83 367,-2426.83 367,-2430.79 363.04,-2434.75 359.08,-2434.75"/>
<text xml:space="preserve" text-anchor="middle" x="251" y="-2417.45" font-family="Arial" font-size="14.00" fill="#cfffac">osint_app/src/lib/supabase&#45;admin.ts</text>
</g>
<!-- osint_app/src/types/index.ts -->
<g id="node89" class="node">
<title>osint_app/src/types/index.ts</title>
<path fill="none" stroke="#cfffac" d="M334.33,-2476.75C334.33,-2476.75 167.67,-2476.75 167.67,-2476.75 163.71,-2476.75 159.75,-2472.79 159.75,-2468.83 159.75,-2468.83 159.75,-2460.92 159.75,-2460.92 159.75,-2456.96 163.71,-2453 167.67,-2453 167.67,-2453 334.33,-2453 334.33,-2453 338.29,-2453 342.25,-2456.96 342.25,-2460.92 342.25,-2460.92 342.25,-2468.83 342.25,-2468.83 342.25,-2472.79 338.29,-2476.75 334.33,-2476.75"/>
<text xml:space="preserve" text-anchor="middle" x="251" y="-2459.45" font-family="Arial" font-size="14.00" fill="#cfffac">osint_app/src/types/index.ts</text>
</g>
<!-- osint_app/tailwind.config.ts -->
<g id="node90" class="node">
<title>osint_app/tailwind.config.ts</title>
<path fill="none" stroke="#cfffac" d="M331.71,-2518.75C331.71,-2518.75 170.29,-2518.75 170.29,-2518.75 166.33,-2518.75 162.38,-2514.79 162.38,-2510.83 162.38,-2510.83 162.38,-2502.92 162.38,-2502.92 162.38,-2498.96 166.33,-2495 170.29,-2495 170.29,-2495 331.71,-2495 331.71,-2495 335.67,-2495 339.62,-2498.96 339.62,-2502.92 339.62,-2502.92 339.62,-2510.83 339.62,-2510.83 339.62,-2514.79 335.67,-2518.75 331.71,-2518.75"/>
<text xml:space="preserve" text-anchor="middle" x="251" y="-2501.45" font-family="Arial" font-size="14.00" fill="#cfffac">osint_app/tailwind.config.ts</text>
</g>
</g>
</svg>
